<?xml version="1.0" encoding="utf-8"?>
<!-- Generator: Adobe Illustrator 15.1.0, SVG Export Plug-In . SVG Version: 6.00 Build 0)  -->
<!DOCTYPE svg PUBLIC "-//W3C//DTD SVG 1.1//EN" "http://www.w3.org/Graphics/SVG/1.1/DTD/svg11.dtd">
<svg version="1.1" id="Layer_1" xmlns="http://www.w3.org/2000/svg" xmlns:xlink="http://www.w3.org/1999/xlink" x="0px" y="0px"
	 width="500px" height="85px" viewBox="25.5 0 500 85" enable-background="new 25.5 0 500 85" xml:space="preserve">
<title>Heartland_Logo</title>
<path d="M337.622,73.653c-3.239,0.271-5.188-0.758-6.283-3.703c-0.407-1.268-0.588-2.597-0.534-3.927
	c0-19.865,0.019-39.732,0.055-59.6c0-1.269-0.2-2.537-0.286-3.601c-5.2,0.97-9.943,1.963-14.719,2.698
	c-2.556,0.393-5.188,0.291-7.76,0.597c-0.785,0.094-1.79,0.062-1.964,0.664c0,0-0.612,5.525-0.432,5.961
	c6.496,0.459,7.674,2.835,8.459,9.232c0.25,2.074,0.381,4.16,0.393,6.248c0.059,12.319,0.059,24.642,0.121,36.961
	c0.021,4.178-1.178,6.35-5.266,7.387c-3.977,0.969-8.033,1.572-12.119,1.806c-5.328,0.342-7.461-1.728-7.461-7.025
	c-0.039-11.062,0.114-22.12,0.106-33.183c0-1.779,0.71-2.399,2.356-2.356c2.934,0.043,5.871,0.082,8.8,0
	c0.829-0.028,2.124-0.295,2.38-0.841c1.029-2.214,1.732-4.575,2.816-7.599c-4.41,0.786-8.004,1.402-11.59,2.054
	c-3.506,0.64-4.422-0.043-4.496-3.75c-0.07-3.534,0.236-9.452,0.229-12.959c0-1.013-0.456-0.786-0.456-0.786
	c-2.93,2.026-4.088,2.557-4.653,3.405c-3.287,8.584-10.277,12.174-17.083,13.474c-0.268,0.67-0.599,1.313-0.99,1.92
	c-4.948-5.891-11.938-5.262-16.101-0.393c-1.901,2.219-3.951,4.32-5.997,6.401c-0.589,0.601-1.414,0.97-2.128,1.445
	c-0.236-0.84-0.644-1.673-0.675-2.517c-0.09-2.639-0.032-5.282-0.032-7.705c-7.74,1.618-15.174,3.142-22.568,4.795
	c-0.671,0.153-1.473,1.304-1.571,2.081c-0.605,4.139-0.294,4.371,3.738,3.499c0.248-0.055,0.491-0.114,0.738-0.157
	c3.311-0.565,5.003,0.786,5.046,4.084c0.047,3.604,0.027,7.21,0.023,10.811c0,6.283,0.047,12.566-0.09,18.85
	c-0.051,2.356-1.044,4.379-3.413,5.428c-2.56,1.131-4.822,0.785-6.958-1.072c-2.926-2.549-4.127-5.957-5.25-9.508
	c-3.427-10.838-6.926-21.653-10.497-32.444c-1.536-4.65-4.87-7.411-9.735-7.94c-9.293-1.066-18.702,0.391-27.238,4.217
	c-0.957,0.549-1.615,1.5-1.794,2.588c-0.253,3.341-0.32,6.693-0.2,10.042c0.165,4.905,0.255,4.901,5.082,6.177
	c0.083,0.02,0.165,0.039,0.243,0.067c1.603,0.597,1.83-0.118,2.113-1.626c0.565-2.996,1.202-6.095,2.514-8.808
	c1.963-4.033,8.309-5.667,10.85-3.04c2.815,2.91,3.782,6.676,4.649,10.603c-1.83,0.53-3.35,0.962-4.861,1.418
	c-7.666,2.29-15.111,5.104-21.206,10.466c-8.007,7.068-6.326,18.739,3.263,23.486c7.776,3.85,15.881,4.391,24.246,2.49
	c3.373-0.785,4.622-2.784,3.849-6.479h-1.928c-1.755,0-3.535,0.181-5.266,0c-7.171-0.746-10.843-8.601-6.971-14.671
	c2.643-4.144,6.554-6.354,11.074-8.008c1.884,9.225,4.83,18.198,8.781,26.743c0.974,2.147,2.211,2.749,4.414,2.722
	c16.262-0.074,32.527-0.039,48.789-0.039c3.951,0,5.172-1.179,5.655-5.97c-2.592,0-5.148,0.024-7.701,0
	c-4.543-0.055-6.79-1.896-6.888-6.437c-0.145-6.863,0-13.744,0.267-20.604c0.126-3.2,1.795-5.776,4.87-7.069
	c2.953-1.233,5.105,0.57,7.261,2.222c0.263,0.205,1.665,1.505,1.862,1.662l1.394-1.1c3.055-2.859,7.029-6.311,9.585-9.594
	l-0.31-1.143c0,0,3.083-0.294,5.105,0.275c0.063,0.648,0.165,1.226,0.165,1.803c0.023,12.24,0.118,24.478,0,36.714
	c-0.031,3.533,1.421,5.854,4.387,7.531c3.455,1.964,7.244,1.964,10.995,1.944c12.405-0.04,24.811-0.181,37.216-0.267
	c3.354-0.024,6.711,0.105,10.057-0.071c0.837-0.043,2.066-0.817,2.357-1.571c0.671-1.735,0.906-3.636,1.307-5.478
	C339.051,73.614,338.333,73.595,337.622,73.653z"/>
<path d="M455,71.026c-0.228-1.573-0.317-3.163-0.267-4.751c0.062-9.975,0.188-19.949,0.247-29.92
	c0.027-4.583-1.398-8.584-5.148-11.463c-6.365-4.893-15.182-4.206-21.904,1.665c-1.736,1.5-3.421,3.075-5.777,5.199l-0.966-7.359
	c-6.534,1.339-12.982,2.718-19.454,3.966c-4.014,0.786-4.265,0.99-4.183,5.443c0.227,0.083,0.463,0.133,0.703,0.149
	c7.775-0.554,8.585,0.157,8.585,7.933c0.023,8.639-0.067,17.278-0.071,25.891c0,2.25-0.424,4.193-2.843,5.033
	c-2.419,0.842-4.674,0.963-6.755-1c-2.749-2.608-3.786-6.025-4.89-9.465c-3.475-10.822-6.95-21.646-10.559-32.425
	c-1.686-5.034-5.584-7.304-10.713-7.701c-8.816-0.707-17.674,0.717-25.824,4.151c-1.543,0.644-2.23,1.614-2.23,3.22
	c0,3.102-0.103,6.201-0.043,9.303c0.094,5.278,0.133,5.278,5.234,6.55l0.239,0.071c1.43,0.468,1.747-0.095,2.015-1.532
	c0.558-2.996,1.178-6.062,2.403-8.831c1.508-3.44,7.657-5.722,10.046-3.884c3.68,2.831,4.496,7.112,5.497,11.361
	c-1.896,0.549-3.338,0.965-4.774,1.39c-7.27,2.136-14.229,4.909-20.299,9.598c-4.383,3.385-6.759,7.704-5.836,13.28
	c0.439,2.301,1.34,4.488,2.65,6.43c1.178,1.688,2.809,2.748,4.406,3.832c0.538,0.371,1.098,0.709,1.677,1.014
	c7.312,3.789,15.071,4.057,23.021,2.407c3.863-0.786,5.062-2.31,4.626-6.778c-2.854,0-5.812,0.354-8.64-0.078
	c-5.23-0.785-8.812-7.564-6.723-12.453c2.262-5.289,6.754-7.987,12.044-9.998c0.181,0.648,0.313,1.029,0.393,1.426
	c1.735,8.824,4.811,17.192,8.458,25.396c0.975,2.179,2.271,2.713,4.43,2.701c14.165-0.07,28.334-0.055,42.503-0.062
	c4.111,0,4.979-0.821,5.438-5.381c-0.907-0.039-1.799-0.098-2.689-0.113c-4.34-0.07-6.437-2.195-6.472-6.512
	c-0.063-8.046-0.075-16.1-0.268-24.139c-0.114-2.609,0.753-5.168,2.431-7.171c2.804-3.448,8.4-4.111,11.49-1.461
	c1.909,1.634,1.964,3.774,1.964,5.966c0,11.902,0,23.805-0.086,35.708c-0.021,2.337,0.593,3.235,3.094,3.142
	c5.781-0.181,11.565-0.055,17.35-0.059c3.326,0,4.414-0.971,5.022-4.666c-1.063-0.125-2.116-0.291-3.173-0.369
	C457.494,75.483,455.491,73.861,455,71.026z"/>
<path d="M111.132,76.426c-1.908-0.612-3.829-1.201-5.678-1.963c-2.026-0.837-2.938-2.258-2.914-4.678
	c0.177-16.493,0.197-33.014,0.244-49.523c0-5.627,1.343-7.238,6.904-8.141c0.742-0.122,1.539-0.043,2.23-0.283
	c0.581-0.2,1.527-0.816,1.477-1.099c-0.126-0.707-0.354-2.168-2.635-2.109H76.315c-2.549-0.047-2.6,1.202-2.926,1.932
	c0.224,0.671,1.072,1.154,1.716,1.331c1.599,0.436,3.311,0.483,4.893,0.962c2.533,0.766,4.194,2.356,4.19,5.25L84.134,38.35H59.437
	l-0.185-20.094c0-2.749,1.441-4.626,4.041-5.404c1.669-0.499,3.463-0.573,5.164-0.993c0.589-0.146,1.571-0.978,1.497-1.127
	c-0.314-0.747,0.393-2.164-4.438-2.156c-5.196,0-10.391,0-15.586,0l0,0c-5.616,0-11.231,0.059-16.847,0
	c-2.482-0.023-2.906,1.001-3.413,2.065c0.458,0.611,1.115,1.042,1.857,1.222c1.527,0.393,3.165,0.393,4.661,0.848
	c3.393,1.056,4.457,2.458,4.477,5.772c0.09,17.346,0.173,34.691,0.129,52.041c0,1.1-0.836,2.679-1.755,3.201
	c-2.077,1.178-4.497,1.747-6.676,2.748c-0.786,0.365-1.814,1.336-1.803,2.012c0.024,1.201,0.287,2.635,2.27,2.623
	c11.482-0.063,22.964-0.063,34.444,0c1.861,0,2.046-1.383,2.171-2.479c0.071-0.632-0.754-1.712-1.437-2.022
	c-2.125-0.962-4.406-1.57-6.558-2.481c-1.571-0.656-2.356-1.803-2.356-3.719L59.087,43.93l25.109-0.133l0.039,26.884
	c0,1.033-0.785,2.521-1.641,2.993c-2.176,1.178-4.603,1.928-6.932,2.826c-1.001,0.394-2.301,0.539-1.755,2.133
	c0.393,1.201,0.499,2.639,2.481,2.514c2.588-0.165,5.196-0.039,7.792-0.039c8.718,0,17.432-0.055,26.146,0.043
	c1.854,0.02,2.246-1.037,2.627-2.356C113.425,77.168,112.31,76.807,111.132,76.426z"/>
<path d="M511.463,68.25c-0.075-0.832-0.075-1.677-0.071-2.514c0.042-20.875,0.084-41.751,0.126-62.627
	C511.473,2.4,511.38,1.696,511.238,1c-1.932,0.648-3.389,1.363-4.92,1.606c-5.105,0.82-10.262,1.508-15.406,2.183
	c-5.344,0.699-4.146-0.538-5.45,4.897c-0.365,1.524,0.099,2.144,1.677,2.262c5.419,0.393,8.887,5.305,7.646,10.894
	c-2.635,0-5.316-0.177-7.972,0.027c-13.713,1.052-23.88,8.852-27.834,21.705c-3.617,11.742-2.152,22.537,7.115,31.447
	c4.764,4.575,16.101,6.314,21.779,3.448c2.176-1.1,3.173-2.749,2.922-5.251c-0.366-0.08-0.741-0.116-1.115-0.105
	c-4.937,0.91-8.07-1.438-10.521-5.467c-3.633-5.957-3.927-12.523-3.868-19.18c0.078-9.841,5.285-16.493,13.524-21.017
	c4.344-2.379,6.456-0.864,6.386,4.072c-0.161,11.232-0.346,22.462-0.429,33.694c-0.059,2.591,0.136,5.183,0.581,7.736
	c0.738,3.856,3.703,6.978,6.865,7.12c4.854,0.211,9.723,0.121,14.58,0c0.668,0,1.63-0.821,1.909-1.492
	c0.691-1.65,1.06-3.433,1.626-5.389c-0.959-0.07-1.771-0.185-2.588-0.185C514.105,73.991,511.793,71.898,511.463,68.25z"/>
<path d="M143.695,71.926c-2.92,0.037-5.81-0.592-8.451-1.838c-7.037-3.451-10.367-9.625-11.369-17.232
	c-1.017-7.751,0.04-15.083,4.712-21.52c2.824-3.888,7.595-3.534,10.25,0.444c2.23,3.342,2.808,7.348,2.71,11.18l-12.005,0.188
	c-0.927,0.287-3.118,5.4-3.122,6.594c0.137,0.436,0.569,0.334,0.868,0.334c10.21,0.021,20.434,0.031,30.67,0.031
	c1.571,0,1.803-0.88,1.571-2.148c-0.424-2.474-0.62-5.011-1.308-7.406c-1.901-6.605-5.195-12.311-11.317-15.951
	c-0.719-0.428-1.48-0.786-2.231-1.127c-8.05-3.797-17.44-3.462-25.199,0.899c-1.818,1.055-3.492,2.34-4.979,3.825
	c-2.95,2.863-5.078,6.465-6.162,10.43c-1.777,6.923-1.824,14.178-0.137,21.124c1.999,8.619,6.652,15.264,15.123,18.775
	c10.474,4.343,20.79,3.573,30.945-0.998c3.515-1.57,4.112-3.494,2.776-7.092C152.424,70.995,148.065,71.867,143.695,71.926z"/>
</svg>
