<?xml version="1.0" encoding="utf-8"?>
<!-- Generator: Adobe Illustrator 15.1.0, SVG Export Plug-In . SVG Version: 6.00 Build 0)  -->
<!DOCTYPE svg PUBLIC "-//W3C//DTD SVG 1.1//EN" "http://www.w3.org/Graphics/SVG/1.1/DTD/svg11.dtd">
<svg version="1.1" id="Layer_1" xmlns="http://www.w3.org/2000/svg" xmlns:xlink="http://www.w3.org/1999/xlink" x="0px" y="0px"
	 width="276px" height="89px" viewBox="138.5 0 276 89" enable-background="new 138.5 0 276 89" xml:space="preserve">
<title>ILVE_Logo</title>
<path d="M246.259,70.268c0.01,0.783-0.139,1.559-0.438,2.281c-0.55,1.318-1.608,2.36-2.936,2.89
	c-0.661,0.265-1.366,0.399-2.078,0.394c-0.756,0.011-1.506-0.131-2.206-0.417c-0.649-0.269-1.237-0.666-1.728-1.169
	c-0.49-0.51-0.875-1.111-1.133-1.771c-0.277-0.704-0.417-1.456-0.409-2.214c-0.01-0.781,0.14-1.557,0.441-2.277
	c0.551-1.324,1.616-2.367,2.951-2.891c0.668-0.266,1.382-0.399,2.101-0.394c0.711-0.005,1.417,0.128,2.078,0.394
	c0.649,0.261,1.241,0.645,1.743,1.131c0.511,0.501,0.917,1.1,1.192,1.76C246.132,68.709,246.276,69.486,246.259,70.268z
	 M245.067,70.268c0.007-0.635-0.104-1.268-0.328-1.862c-0.204-0.542-0.512-1.038-0.909-1.46c-0.383-0.404-0.844-0.727-1.355-0.946
	c-0.527-0.226-1.095-0.339-1.668-0.335c-0.581-0.005-1.157,0.109-1.692,0.335c-0.515,0.219-0.979,0.54-1.364,0.946
	c-0.396,0.422-0.705,0.918-0.909,1.46c-0.224,0.595-0.335,1.228-0.329,1.862c-0.005,0.609,0.096,1.215,0.297,1.789
	c0.188,0.537,0.48,1.033,0.858,1.46c0.376,0.417,0.835,0.753,1.348,0.983c0.562,0.25,1.171,0.375,1.787,0.364
	c0.573,0.005,1.141-0.109,1.668-0.335c0.511-0.22,0.973-0.541,1.355-0.945c0.396-0.42,0.705-0.913,0.909-1.453
	c0.227-0.594,0.34-1.227,0.334-1.863H245.067z M239.704,73.457h-1.013v-6.17h2.339c0.744,0,1.305,0.14,1.684,0.418
	c0.379,0.277,0.568,0.729,0.567,1.355c0,0.556-0.154,0.963-0.462,1.222c-0.327,0.267-0.727,0.428-1.147,0.462l1.728,2.711h-1.147
	l-1.593-2.636h-0.955v2.636V73.457z M240.837,69.955c0.188,0,0.369-0.007,0.543-0.021c0.159-0.01,0.313-0.053,0.455-0.126
	c0.128-0.068,0.236-0.169,0.313-0.291c0.089-0.161,0.13-0.345,0.12-0.529c0.009-0.159-0.036-0.315-0.126-0.446
	c-0.085-0.109-0.195-0.197-0.321-0.254c-0.137-0.062-0.283-0.1-0.433-0.112c-0.16-0.016-0.313-0.021-0.46-0.021h-1.222v1.802h1.133
	H240.837z"/>
<path d="M218.068,2.967h-47.723l-23.987,40.815l23.987,40.823h47.723l23.987-40.823L218.068,2.967z M213.346,76.354h-38.279
	l-19.139-32.571l19.139-32.551h38.279l19.128,32.559L213.346,76.354z"/>
<rect x="185.225" y="15.803" width="17.191" height="12.702"/>
<rect x="185.225" y="32.192" width="17.191" height="39.103"/>
<rect x="255.804" y="21.056" width="11.27" height="53.674"/>
<polygon points="347.059,21.056 334.732,57.137 323.946,21.056 312.677,21.056 328.721,74.73 339.991,74.73 358.328,21.056 "/>
<polygon points="288.274,64.946 288.274,21.056 277.005,21.056 277.005,64.946 277.005,74.73 288.274,74.73 314.182,74.73 
	314.182,64.946 "/>
<polygon points="404.02,30.838 404.02,21.056 375.52,21.056 364.25,21.056 364.25,30.838 364.25,41.882 364.25,51.666 
	364.25,64.946 364.25,74.73 375.52,74.73 404.02,74.73 404.02,64.946 375.52,64.946 375.52,51.666 401.427,51.666 401.427,41.882 
	375.52,41.882 375.52,30.838 "/>
</svg>
