<?xml version="1.0" encoding="utf-8"?>
<!-- Generator: Adobe Illustrator 15.1.0, SVG Export Plug-In . SVG Version: 6.00 Build 0)  -->
<!DOCTYPE svg PUBLIC "-//W3C//DTD SVG 1.1//EN" "http://www.w3.org/Graphics/SVG/1.1/DTD/svg11.dtd">
<svg version="1.1" id="Layer_1" xmlns="http://www.w3.org/2000/svg" xmlns:xlink="http://www.w3.org/1999/xlink" x="0px" y="0px"
	 width="505.702px" height="101.316px" viewBox="0 0 505.702 101.316" enable-background="new 0 0 505.702 101.316"
	 xml:space="preserve">
<g>
	<g>
		<g>
			<path fill="#0096C1" d="M1.854,66.217V2.179h5.789l48.242,38.139l48.242-38.139h5.79v64.038h-5.79V7.301L55.885,45.44
				L7.643,7.301v58.916H1.854z"/>
			<path fill="#0096C1" d="M187.103,66.217c-15.437,0-28.945-3.202-40.523-9.605c-11.578-6.404-17.366-13.875-17.366-22.414
				s5.788-16.009,17.366-22.414c11.579-6.404,25.087-9.605,40.523-9.605c15.438,0,28.946,3.202,40.523,9.605
				c11.579,6.404,17.367,13.875,17.367,22.414s-5.788,16.009-17.367,22.414C216.049,63.015,202.542,66.217,187.103,66.217z
				 M187.103,64.084c13.894,0,26.051-2.99,36.472-8.967c10.42-5.976,15.63-12.951,15.63-20.919s-5.21-14.942-15.63-20.919
				s-22.578-8.966-36.472-8.966c-13.893,0-26.05,2.988-36.47,8.966c-10.421,5.978-15.631,12.951-15.631,20.919
				s5.21,14.943,15.631,20.919C161.053,61.094,173.21,64.084,187.103,64.084z"/>
			<path fill="#0096C1" d="M299.025,66.217h-34.733V2.179h34.733c20.582,0,38.594,3.202,54.032,9.605
				c15.437,6.404,23.155,13.875,23.155,22.414s-7.719,16.009-23.155,22.414C337.619,63.015,319.607,66.217,299.025,66.217z
				 M299.025,63.94c19.038,0.096,35.698-2.846,49.98-8.822c14.278-5.976,21.417-12.951,21.417-20.919s-7.139-14.942-21.417-20.919
				c-14.282-5.978-30.942-8.966-49.98-8.966h-28.946v59.771L299.025,63.94z"/>
			<path fill="#0096C1" d="M395.509,66.217V2.179h108.062v2.134H401.297v28.818h67.54v2.134h-67.54v28.819h102.274v2.133H395.509z"
				/>
		</g>
	</g>
	<g>
		<path fill="#7F7F7F" d="M11.169,94.101c-5.343,0-8.015-2.034-8.015-6.099H5.06c0,1.605,0.49,2.774,1.473,3.507
			c0.982,0.731,2.539,1.098,4.672,1.098c1.438,0,2.624-0.194,3.558-0.581c1.151-0.509,1.726-1.265,1.726-2.263
			c0-1.222-1.198-2.068-3.591-2.537c-0.167-0.04-1.367-0.202-3.594-0.484c-3.596-0.468-5.394-1.788-5.394-3.96
			c0-1.422,0.72-2.527,2.157-3.319c1.222-0.689,2.719-1.034,4.493-1.034c5.151,0,7.726,1.808,7.726,5.427h-1.94
			c0-1.382-0.444-2.383-1.33-3.003c-0.886-0.621-2.312-0.932-4.276-0.932c-1.318,0-2.432,0.226-3.343,0.672
			c-1.054,0.529-1.581,1.261-1.581,2.195c0,1.22,1.173,2.002,3.521,2.348c0.623,0.103,1.894,0.295,3.81,0.58
			c3.498,0.508,5.248,1.86,5.248,4.055c0,1.546-0.791,2.694-2.373,3.447C14.75,93.806,13.134,94.101,11.169,94.101z"/>
		<path fill="#7F7F7F" d="M37.62,93.735v-2.073c-1.415,1.585-3.559,2.378-6.434,2.378c-2.253,0-4.038-0.458-5.355-1.371
			c-1.39-0.996-2.084-2.389-2.084-4.18v-9.666h1.832v9.637c0,2.765,1.869,4.147,5.607,4.147c2.156,0,3.785-0.528,4.888-1.586
			c1.03-0.997,1.545-2.379,1.545-4.146v-8.052h1.833v14.912H37.62z"/>
		<path fill="#7F7F7F" d="M54.08,94.253c-3.187,0-5.571-0.976-7.152-2.927v7.501h-1.833V78.793h1.833v2.592
			c1.581-1.952,3.954-2.928,7.117-2.928c2.85,0,5.078,0.742,6.685,2.226c1.509,1.424,2.265,3.294,2.265,5.611
			c0,2.419-0.78,4.351-2.337,5.794C59.099,93.533,56.907,94.253,54.08,94.253z M59.404,81.782c-1.244-1.262-2.964-1.891-5.163-1.891
			c-2.223,0-3.997,0.584-5.323,1.753c-1.327,1.17-1.99,2.71-1.99,4.62c0,2.033,0.585,3.609,1.757,4.727
			c1.243,1.221,3.083,1.829,5.52,1.829c2.247,0,3.992-0.63,5.235-1.891c1.147-1.179,1.721-2.714,1.721-4.604
			C61.16,84.475,60.574,82.96,59.404,81.782z"/>
		<path fill="#7F7F7F" d="M68.563,86.813c0.239,3.862,2.641,5.794,7.208,5.794c3.466,0,5.749-1.21,6.848-3.63h1.865
			c-0.695,1.912-1.881,3.254-3.558,4.025c-1.462,0.691-3.212,1.037-5.248,1.037c-2.947,0-5.199-0.722-6.757-2.165
			c-1.461-1.342-2.192-3.202-2.192-5.58c0-2.337,0.833-4.229,2.499-5.673c1.666-1.441,3.875-2.164,6.63-2.164
			c2.755,0,4.959,0.658,6.613,1.974c1.654,1.316,2.48,3.087,2.48,5.311v1.071H68.563z M75.858,79.891
			c-2.037,0-3.708,0.488-5.014,1.464c-1.306,0.975-2.065,2.316-2.282,4.024h14.375c-0.119-1.708-0.82-3.05-2.102-4.024
			C79.554,80.379,77.895,79.891,75.858,79.891z"/>
		<path fill="#7F7F7F" d="M92.679,82.33c-1.056,1.403-1.582,3.202-1.582,5.397v5.977h-1.833v-14.91h1.833v2.529
			c0.36-0.446,0.814-0.863,1.365-1.248c1.582-1.078,3.678-1.617,6.29-1.617v1.434C95.948,79.891,93.924,80.704,92.679,82.33z"/>
		<path fill="#7F7F7F" d="M104.071,76.109c-0.384,0-0.671-0.202-0.862-0.608v-2.136c0.215-0.406,0.503-0.609,0.862-0.609
			c0.287,0,0.611,0.183,0.97,0.549v2.257C104.705,75.926,104.382,76.109,104.071,76.109z M103.208,93.704V78.579h1.832v15.125
			H103.208z"/>
		<path fill="#7F7F7F" d="M118.841,94.04c-2.852,0-5.109-0.722-6.775-2.165c-1.666-1.443-2.498-3.313-2.498-5.61
			c0-2.378,0.856-4.273,2.569-5.688c1.712-1.412,3.971-2.119,6.775-2.119c2.803,0,5.049,0.707,6.739,2.119
			c1.689,1.414,2.533,3.31,2.533,5.688s-0.856,4.269-2.569,5.672C123.903,93.338,121.645,94.04,118.841,94.04z M124.376,81.644
			c-1.318-1.169-3.151-1.753-5.499-1.753c-2.3,0-4.122,0.575-5.462,1.723c-1.342,1.148-2.013,2.698-2.013,4.65
			c0,1.932,0.676,3.473,2.03,4.619c1.354,1.148,3.169,1.724,5.445,1.724s4.091-0.575,5.445-1.724
			c1.354-1.146,2.031-2.688,2.031-4.619C126.353,84.354,125.694,82.814,124.376,81.644z"/>
		<path fill="#7F7F7F" d="M136.128,82.33c-1.054,1.403-1.581,3.202-1.581,5.397v5.977h-1.833v-14.91h1.833v2.529
			c0.359-0.446,0.814-0.863,1.365-1.248c1.582-1.078,3.678-1.617,6.29-1.617v1.434C139.399,79.891,137.374,80.704,136.128,82.33z"/>
		<path fill="#7F7F7F" d="M170.881,94.253c-3.187,0-5.57-0.976-7.152-2.927v7.501h-1.833V78.793h1.833v2.592
			c1.582-1.952,3.954-2.928,7.116-2.928c2.851,0,5.079,0.742,6.684,2.226c1.509,1.424,2.265,3.294,2.265,5.611
			c0,2.419-0.779,4.351-2.335,5.794C175.9,93.533,173.708,94.253,170.881,94.253z M176.205,81.782
			c-1.244-1.262-2.964-1.891-5.163-1.891c-2.222,0-3.997,0.584-5.322,1.753c-1.327,1.17-1.99,2.71-1.99,4.62
			c0,2.033,0.585,3.609,1.756,4.727c1.242,1.221,3.083,1.829,5.52,1.829c2.247,0,3.992-0.63,5.235-1.891
			c1.147-1.179,1.721-2.714,1.721-4.604C177.961,84.475,177.375,82.96,176.205,81.782z"/>
		<path fill="#7F7F7F" d="M188.096,82.33c-1.055,1.403-1.582,3.202-1.582,5.397v5.977h-1.833v-14.91h1.833v2.529
			c0.36-0.446,0.814-0.863,1.365-1.248c1.582-1.078,3.678-1.617,6.29-1.617v1.434C191.366,79.891,189.341,80.704,188.096,82.33z"/>
		<path fill="#7F7F7F" d="M206.855,94.04c-2.85,0-5.109-0.722-6.773-2.165c-1.665-1.443-2.499-3.313-2.499-5.61
			c0-2.378,0.856-4.273,2.57-5.688c1.713-1.412,3.971-2.119,6.774-2.119s5.05,0.707,6.739,2.119c1.688,1.414,2.533,3.31,2.533,5.688
			s-0.857,4.269-2.569,5.672C211.917,93.338,209.659,94.04,206.855,94.04z M212.39,81.644c-1.318-1.169-3.151-1.753-5.499-1.753
			c-2.3,0-4.121,0.575-5.463,1.723c-1.341,1.148-2.011,2.698-2.011,4.65c0,1.932,0.677,3.473,2.03,4.619
			c1.353,1.148,3.168,1.724,5.444,1.724c2.277,0,4.092-0.575,5.445-1.724c1.354-1.146,2.031-2.688,2.031-4.619
			C214.367,84.354,213.708,82.814,212.39,81.644z"/>
		<path fill="#7F7F7F" d="M235.858,93.704v-2.683c-1.604,2.014-4.037,3.019-7.296,3.019c-2.779,0-4.972-0.762-6.576-2.286
			c-1.509-1.444-2.265-3.304-2.265-5.581c0-2.317,0.767-4.197,2.301-5.641c1.605-1.525,3.833-2.287,6.685-2.287
			c3.209,0,5.594,0.965,7.15,2.896V73.03h1.834v20.674H235.858z M234.03,81.477c-1.291-1.201-3.119-1.799-5.485-1.799
			c-2.199,0-3.932,0.639-5.198,1.92c-1.193,1.199-1.792,2.725-1.792,4.574c0,1.871,0.584,3.385,1.757,4.543
			c1.242,1.262,2.986,1.892,5.232,1.892c2.224,0,4.003-0.63,5.343-1.892c1.313-1.198,1.971-2.713,1.971-4.543
			C235.858,84.18,235.249,82.616,234.03,81.477z"/>
		<path fill="#7F7F7F" d="M257.421,93.735v-2.073c-1.414,1.585-3.558,2.378-6.434,2.378c-2.252,0-4.037-0.458-5.354-1.371
			c-1.39-0.996-2.084-2.389-2.084-4.18v-9.666h1.833v9.637c0,2.765,1.869,4.147,5.606,4.147c2.156,0,3.785-0.528,4.889-1.586
			c1.029-0.997,1.545-2.379,1.545-4.146v-8.052h1.833v14.912H257.421z"/>
		<path fill="#7F7F7F" d="M278.374,92.913c-1.438,0.751-3.162,1.127-5.175,1.127c-2.828,0-5.068-0.686-6.721-2.058
			c-1.653-1.373-2.479-3.198-2.479-5.474c0-2.399,0.845-4.341,2.534-5.825c1.689-1.483,4.043-2.226,7.062-2.226
			c1.819,0,3.4,0.347,4.743,1.037c1.484,0.772,2.491,1.972,3.02,3.598l-1.688,0.701c-0.816-2.601-2.864-3.902-6.147-3.902
			c-2.443,0-4.337,0.609-5.678,1.829c-1.342,1.221-2.013,2.816-2.013,4.788c0,1.869,0.646,3.354,1.941,4.451
			c1.293,1.098,3.089,1.647,5.391,1.647c1.628,0,3.03-0.306,4.204-0.915c1.269-0.671,2.083-1.789,2.443-3.354l1.727,0.639
			C281.035,90.747,279.978,92.057,278.374,92.913z"/>
		<path fill="#7F7F7F" d="M290.342,80.897v12.807h-1.834V80.897h-3.556v-1.434h3.556v-4.482h1.834v4.482h3.63v1.434H290.342z"/>
		<path fill="#7F7F7F" d="M305.687,94.101c-5.344,0-8.014-2.034-8.014-6.099h1.904c0,1.605,0.491,2.774,1.474,3.507
			c0.982,0.731,2.539,1.098,4.673,1.098c1.436,0,2.623-0.194,3.557-0.581c1.15-0.509,1.727-1.265,1.727-2.263
			c0-1.222-1.199-2.068-3.593-2.537c-0.168-0.04-1.366-0.202-3.594-0.484c-3.596-0.468-5.394-1.788-5.394-3.96
			c0-1.422,0.719-2.527,2.157-3.319c1.222-0.689,2.718-1.034,4.491-1.034c5.152,0,7.728,1.808,7.728,5.427h-1.94
			c0-1.382-0.442-2.383-1.33-3.003c-0.887-0.621-2.313-0.932-4.276-0.932c-1.318,0-2.433,0.226-3.343,0.672
			c-1.055,0.529-1.581,1.261-1.581,2.195c0,1.22,1.173,2.002,3.522,2.348c0.622,0.103,1.892,0.295,3.81,0.58
			c3.497,0.508,5.246,1.86,5.246,4.055c0,1.546-0.79,2.694-2.371,3.447C309.27,93.806,307.652,94.101,305.687,94.101z"/>
		<path fill="#7F7F7F" d="M349.101,91.784c-1.605,1.484-3.832,2.225-6.685,2.225c-3.09,0-5.463-0.995-7.115-2.987v2.683h-1.835
			V73.03h1.835v8.08c1.557-1.93,3.94-2.896,7.15-2.896c2.876,0,5.104,0.773,6.686,2.318c1.485,1.423,2.228,3.312,2.228,5.671
			C351.365,88.542,350.611,90.402,349.101,91.784z M347.81,81.512c-1.217-1.244-2.962-1.865-5.231-1.865
			c-2.438,0-4.278,0.611-5.521,1.834c-1.171,1.141-1.756,2.731-1.756,4.768c0,1.875,0.667,3.398,2.008,4.57
			c1.337,1.171,3.105,1.757,5.305,1.757c2.222,0,3.955-0.622,5.196-1.864c1.148-1.161,1.722-2.679,1.722-4.555
			C349.532,84.221,348.958,82.672,347.81,81.512z"/>
		<path fill="#7F7F7F" d="M363.405,99.163c-2.133,0-3.882-0.355-5.247-1.067c-1.678-0.853-2.577-2.287-2.695-4.298h1.832
			c0.264,2.621,2.323,3.932,6.183,3.932c4.455,0,6.685-1.584,6.685-4.756v-1.129c-1.415,1.607-3.558,2.409-6.435,2.409
			c-2.251,0-4.038-0.468-5.354-1.403c-1.39-0.995-2.085-2.398-2.085-4.208v-9.819h1.832v9.789c0,2.805,1.869,4.208,5.606,4.208
			c2.157,0,3.786-0.538,4.89-1.616c1.029-1.017,1.545-2.42,1.545-4.207v-8.174h1.833v14.18
			C371.995,97.109,369.13,99.163,363.405,99.163z"/>
		<path fill="#7F7F7F" d="M408.003,93.704v-2.683c-1.604,2.014-4.037,3.019-7.294,3.019c-2.78,0-4.974-0.762-6.578-2.286
			c-1.509-1.444-2.266-3.304-2.266-5.581c0-2.317,0.768-4.197,2.301-5.641c1.606-1.525,3.833-2.287,6.685-2.287
			c3.211,0,5.596,0.965,7.152,2.896V73.03h1.833v20.674H408.003z M406.176,81.477c-1.29-1.201-3.119-1.799-5.485-1.799
			c-2.2,0-3.933,0.639-5.198,1.92c-1.195,1.199-1.792,2.725-1.792,4.574c0,1.871,0.584,3.385,1.757,4.543
			c1.242,1.262,2.986,1.892,5.233,1.892c2.223,0,4.004-0.63,5.34-1.892c1.314-1.198,1.973-2.713,1.973-4.543
			C408.003,84.18,407.393,82.616,406.176,81.477z"/>
		<path fill="#7F7F7F" d="M416.342,86.813c0.238,3.862,2.64,5.794,7.206,5.794c3.466,0,5.749-1.21,6.85-3.63h1.865
			c-0.696,1.912-1.881,3.254-3.56,4.025c-1.461,0.691-3.211,1.037-5.246,1.037c-2.946,0-5.2-0.722-6.757-2.165
			c-1.461-1.342-2.191-3.202-2.191-5.58c0-2.337,0.832-4.229,2.498-5.673c1.665-1.441,3.873-2.164,6.63-2.164
			c2.754,0,4.961,0.658,6.613,1.974c1.653,1.316,2.479,3.087,2.479,5.311v1.071H416.342z M423.637,79.891
			c-2.036,0-3.709,0.488-5.015,1.464c-1.306,0.975-2.066,2.316-2.28,4.024h14.375c-0.12-1.708-0.821-3.05-2.103-4.024
			C427.333,80.379,425.673,79.891,423.637,79.891z"/>
		<path fill="#7F7F7F" d="M444.483,94.101c-5.345,0-8.016-2.034-8.016-6.099h1.906c0,1.605,0.489,2.774,1.473,3.507
			c0.981,0.731,2.539,1.098,4.673,1.098c1.438,0,2.625-0.194,3.557-0.581c1.151-0.509,1.726-1.265,1.726-2.263
			c0-1.222-1.197-2.068-3.591-2.537c-0.168-0.04-1.367-0.202-3.594-0.484c-3.596-0.468-5.395-1.788-5.395-3.96
			c0-1.422,0.72-2.527,2.157-3.319c1.221-0.689,2.72-1.034,4.491-1.034c5.15,0,7.727,1.808,7.727,5.427h-1.94
			c0-1.382-0.442-2.383-1.328-3.003c-0.888-0.621-2.313-0.932-4.277-0.932c-1.318,0-2.433,0.226-3.341,0.672
			c-1.057,0.529-1.582,1.261-1.582,2.195c0,1.22,1.174,2.002,3.521,2.348c0.624,0.103,1.892,0.295,3.81,0.58
			c3.498,0.508,5.248,1.86,5.248,4.055c0,1.546-0.792,2.694-2.373,3.447C448.063,93.806,446.447,94.101,444.483,94.101z"/>
		<path fill="#7F7F7F" d="M457.887,76.109c-0.385,0-0.67-0.202-0.863-0.608v-2.136c0.216-0.406,0.504-0.609,0.863-0.609
			c0.288,0,0.611,0.183,0.97,0.549v2.257C458.523,75.926,458.198,76.109,457.887,76.109z M457.024,93.704V78.579h1.833v15.125
			H457.024z"/>
		<path fill="#7F7F7F" d="M472.477,99.163c-2.155,0-3.918-0.355-5.282-1.067c-1.678-0.853-2.575-2.287-2.695-4.298h1.832
			c0.264,2.621,2.323,3.932,6.182,3.932c4.457,0,6.685-1.584,6.685-4.756v-1.952c-1.629,1.788-3.976,2.683-7.043,2.683
			c-2.684,0-4.806-0.701-6.362-2.104c-1.558-1.402-2.335-3.223-2.335-5.458c0-2.276,0.796-4.127,2.39-5.55
			c1.593-1.424,3.778-2.135,6.559-2.135c3.02,0,5.284,0.916,6.792,2.744v-2.408h1.835v14.209
			C481.033,97.109,478.181,99.163,472.477,99.163z M472.333,79.891c-2.155,0-3.881,0.609-5.176,1.829
			c-1.245,1.14-1.868,2.603-1.868,4.392c0,1.81,0.575,3.262,1.725,4.36c1.223,1.2,2.911,1.8,5.068,1.8
			c2.204,0,3.941-0.561,5.212-1.678c1.27-1.117,1.903-2.582,1.903-4.392c0-1.788-0.622-3.288-1.868-4.497
			C476.083,80.496,474.417,79.891,472.333,79.891z"/>
		<path fill="#7F7F7F" d="M500.44,93.704v-9.727c0-1.321-0.504-2.349-1.512-3.08c-0.984-0.67-2.324-1.006-4.024-1.006
			c-2.013,0-3.601,0.503-4.763,1.509c-1.162,1.007-1.742,2.323-1.742,3.949v8.354h-1.835v-14.91h1.835v2.043
			c1.389-1.586,3.545-2.379,6.469-2.379c2.132,0,3.869,0.427,5.211,1.281c1.462,0.935,2.192,2.256,2.192,3.964v10.001H500.44z"/>
	</g>
</g>
</svg>
