<?xml version="1.0" encoding="utf-8"?>
<!-- Generator: Adobe Illustrator 15.1.0, SVG Export Plug-In . SVG Version: 6.00 Build 0)  -->
<!DOCTYPE svg PUBLIC "-//W3C//DTD SVG 1.1//EN" "http://www.w3.org/Graphics/SVG/1.1/DTD/svg11.dtd">
<svg version="1.1" id="Layer_2" xmlns="http://www.w3.org/2000/svg" xmlns:xlink="http://www.w3.org/1999/xlink" x="0px" y="0px"
	 width="550px" height="85px" viewBox="0 0 550 85" enable-background="new 0 0 550 85" xml:space="preserve">
<title>Sedona_By_Lynx Logo_Vector_CS6</title>
<path d="M55.11,44.967c-2.445-1.105-5.072-1.754-7.75-1.911c-3.285-0.311-7.896-0.469-13.833-0.474
	c-3.952,0-7.014-0.042-9.188-0.126c-1.624-0.021-3.242-0.199-4.831-0.534c-0.817-0.125-1.563-0.537-2.104-1.163
	c-0.382-0.676-0.557-1.448-0.504-2.223c-0.056-1.072,0.486-2.087,1.408-2.638c1.19-0.621,2.529-0.901,3.868-0.808h15.433
	c3.013,0,4.895,0.323,5.646,0.971c0.751,0.647,1.126,1.882,1.126,3.705h13.929v-1.452c0.035-1.93-0.154-3.856-0.563-5.742
	c-0.366-1.546-1.159-2.958-2.29-4.075c-1.504-1.335-3.33-2.254-5.298-2.667c-3.085-0.7-6.247-1.014-9.41-0.934H21.301
	c-3.398-0.093-6.794,0.266-10.099,1.067c-2.509,0.711-4.349,1.699-5.52,2.963C4.55,30.131,3.78,31.631,3.46,33.253
	c-0.358,2.044-0.524,4.118-0.496,6.194c-0.069,2.378,0.203,4.753,0.808,7.054c0.497,1.663,1.592,3.083,3.075,3.986
	c1.526,0.963,3.806,1.642,6.838,2.037c4.197,0.456,8.419,0.654,12.64,0.593c5.058,0,8.763,0.042,11.114,0.126
	c1.809,0.03,3.612,0.198,5.394,0.504c0.924,0.096,1.788,0.507,2.445,1.163c0.449,0.722,0.657,1.568,0.593,2.416
	c0,1.59-0.524,2.625-1.571,3.104c-1.397,0.551-2.894,0.804-4.394,0.742H22.865c-2.257,0-3.816-0.305-4.675-0.912
	s-1.309-2.04-1.348-4.297H2.919v3.134c-0.065,2.069,0.277,4.131,1.007,6.067c0.618,1.533,1.705,2.83,3.104,3.705
	c1.659,0.972,3.491,1.611,5.394,1.883c2.729,0.414,5.487,0.602,8.247,0.562H37.55c3.875,0.051,7.749-0.128,11.603-0.533
	c2.337-0.201,4.608-0.885,6.668-2.008c1.588-0.959,2.787-2.446,3.386-4.201c0.733-2.43,1.061-4.963,0.971-7.498
	c0-3.344-0.375-5.957-1.126-7.84C58.316,47.371,56.91,45.848,55.11,44.967z"/>
<polygon points="82.146,52.621 116.021,52.621 116.021,43.211 82.146,43.211 82.146,35.936 117.903,35.936 117.903,25.392 
	68.224,25.392 68.224,70.811 118.718,70.811 118.718,59.896 82.146,59.896 "/>
<path d="M183.748,29.03c-2.825-2.425-7.686-3.638-14.581-3.638H127.12v45.418h42.033c6.915,0,11.775-1.213,14.581-3.638
	s4.216-6.481,4.23-12.166V41.203C187.969,35.518,186.564,31.46,183.748,29.03z M174.042,50.99c0,3.137-0.617,5.281-1.852,6.432
	c-1.235,1.151-3.378,1.727-6.431,1.727h-24.71V36.684h24.717c3.053,0,5.196,0.576,6.431,1.727s1.853,3.294,1.853,6.432v6.148
	H174.042z"/>
<path d="M252.521,28.186c-1.867-1.255-3.969-2.12-6.179-2.542c-2.842-0.538-5.732-0.786-8.625-0.741h-22.331
	c-2.892-0.033-5.78,0.215-8.625,0.741c-2.208,0.398-4.305,1.265-6.149,2.542c-1.749,1.283-3.097,3.035-3.89,5.053
	c-0.979,2.602-1.438,5.372-1.349,8.15v13.492c-0.089,2.779,0.369,5.548,1.349,8.15c0.789,2.01,2.139,3.752,3.89,5.016
	c1.854,1.26,3.947,2.125,6.149,2.541c2.842,0.539,5.732,0.787,8.625,0.741h22.331c2.893,0.046,5.782-0.202,8.625-0.741
	c2.215-0.422,4.319-1.297,6.179-2.57c1.753-1.262,3.104-3.004,3.89-5.016c0.957-2.588,1.405-5.335,1.319-8.092V41.329
	c0.087-2.776-0.36-5.543-1.319-8.15C255.632,31.169,254.279,29.432,252.521,28.186z M243.422,50.547c0,3.428-0.533,5.801-1.6,7.119
	c-1.067,1.319-3.188,1.979-6.365,1.979h-17.782c-3.176,0-5.297-0.659-6.364-1.979c-1.067-1.318-1.61-3.691-1.63-7.119v-4.891
	c0-3.092,0.595-5.379,1.786-6.861s3.5-2.223,6.927-2.223h16.3c3.428,0,5.737,0.741,6.928,2.223s1.786,3.771,1.786,6.869v4.89
	L243.422,50.547z"/>
<polygon points="313.617,58.393 313.49,58.393 287.336,25.392 265.753,25.392 265.753,70.811 279.683,70.811 279.683,37.817 
	279.809,37.817 305.963,70.811 327.539,70.811 327.539,25.392 313.617,25.392 "/>
<path d="M358.405,25.392l-24.591,45.418h15.559l4.046-8.031h28.229l4.371,8.031h15.492l-24.969-45.418H358.405z M358.657,52.991
	l8.78-17.041l9.031,17.041h-17.781H358.657z"/>
<path d="M402.646,41.314L402.646,41.314c0.704-0.208,1.216-0.474,1.216-1.889c0-1.615-0.979-2.164-2.964-2.164h-7.261v8.202h8.038
	c1.445,0,2.512-0.378,2.512-2.187C404.157,42.041,403.75,41.448,402.646,41.314z M396.133,39.21h4.445
	c0.354-0.066,0.695,0.167,0.762,0.521c0.065,0.354-0.168,0.694-0.521,0.761c-0.079,0.015-0.16,0.015-0.24,0h-4.445V39.21z
	 M400.66,43.485h-4.527v-1.282h4.527c0.548,0,0.911,0.126,0.911,0.682c0,0.556-0.37,0.6-0.919,0.6H400.66z"/>
<polygon points="410.729,40.596 407.958,37.232 404.913,37.232 409.47,42.596 409.47,45.464 411.988,45.464 411.988,42.596 
	416.553,37.232 413.508,37.232 "/>
<polygon points="534.938,20.85 536.463,20.85 536.463,15.686 538.553,15.686 538.553,14.516 532.848,14.516 532.848,15.686 
	534.938,15.686 "/>
<polygon points="544.799,14.516 543.258,18.872 543.235,18.872 541.605,14.516 539.449,14.516 539.449,20.85 540.887,20.85 
	540.887,16.405 540.901,16.405 542.613,20.85 543.791,20.85 545.503,16.36 545.518,16.36 545.518,20.85 546.955,20.85 
	546.955,14.516 "/>
<polygon points="426.829,56.83 426.829,37.677 426.829,37.677 420.643,37.677 420.636,37.677 420.636,61.816 420.636,61.816 
	439.069,61.816 439.069,56.837 439.069,56.83 426.837,56.83 "/>
<polygon points="428.541,37.677 428.541,42.522 428.541,42.522 440.855,42.522 440.855,42.522 440.855,61.675 440.862,61.675 
	446.842,61.675 446.842,42.522 446.842,41.522 446.842,37.677 446.834,37.677 "/>
<polygon points="470.188,51.91 470.188,51.91 461.142,51.91 461.142,51.91 461.142,37.595 461.142,37.595 452.71,37.595 
	452.71,56.066 452.71,56.066 470.188,56.066 "/>
<path d="M481.851,53.324l8.075-15.722h-6.327l-4.586,10.373l0,0l-4.298-10.41h-8.372l8.365,16.819l0,0
	c-2.26,3.815-4.49,4.289-7.528,4.52v2.615c0.452,0,1.097,0,1.646,0C476.227,61.594,478.635,59.134,481.851,53.324z"/>
<polygon points="497.898,46.701 508.627,56.066 512.983,56.066 512.983,37.603 512.983,37.595 506.849,37.595 506.849,46.33 
	506.849,46.338 496.965,37.603 496.965,37.595 491.764,37.595 491.764,56.066 491.764,56.066 497.898,56.066 "/>
<polygon points="531.818,45.967 531.825,45.96 539.441,37.595 539.441,37.595 532.403,37.595 528.461,42.174 528.461,42.174 
	525.098,37.595 525.098,37.595 516.059,37.595 516.059,37.603 523.616,47.071 523.616,47.071 515.317,56.066 515.311,56.066 
	522.712,56.066 527.039,51.102 527.039,51.095 530.877,56.066 530.885,56.066 539.864,56.066 539.856,56.059 "/>
<polygon points="452.524,59.252 452.524,61.675 464.18,61.675 464.18,59.252 464.18,59.252 "/>
<path d="M477.894,61.46h-0.066h61.948v-2.223h-59.059C480.153,60.361,479.118,61.176,477.894,61.46z"/>
<polygon points="428.475,44.367 428.475,54.984 428.475,54.984 439.092,54.984 439.092,44.367 439.092,44.367 428.481,44.367 "/>
</svg>
