<?xml version="1.0" encoding="utf-8"?>
<!-- Generator: Adobe Illustrator 15.1.0, SVG Export Plug-In . SVG Version: 6.00 Build 0)  -->
<!DOCTYPE svg PUBLIC "-//W3C//DTD SVG 1.1//EN" "http://www.w3.org/Graphics/SVG/1.1/DTD/svg11.dtd">
<svg version="1.1" id="Layer_1" xmlns="http://www.w3.org/2000/svg" xmlns:xlink="http://www.w3.org/1999/xlink" x="0px" y="0px"
	 width="550px" height="85px" viewBox="0 0 550 85" enable-background="new 0 0 550 85" xml:space="preserve">
<title>VentAHood_Logo</title>
<path d="M495.351,12.523c1.63-0.625,4.036,0.288,4.39,0.415c2.192,0.794,3.169,2.129,2.798,4.413
	c-0.224,1.355-0.812,2.693-1.438,3.937c-3.286,6.534-6.806,12.956-9.896,19.584c-1.722,3.693-2.825,7.684-4.097,11.577
	c-1.271,3.895,2.342,7.582,6.16,7.336c2.379-0.153,4.727-0.628,6.979-1.412c7.829-2.76,15.619-5.596,23.809-7.154
	c6.216-1.18,12.208-0.509,17.888,2.264c3.098,1.525,5.148,3.922,5.662,7.449c0.151,0.801,0.212,1.617,0.181,2.432
	c-0.15,1.135-0.713,2.398-2.173,2.92c-2.245,0.804-4.377,0.707-6.3-0.837c-3.039-2.438-6.496-3.815-10.385-3.914
	c-4.967-0.114-9.774,0.964-14.525,2.289c-5.183,1.439-10.323,3.052-15.542,4.349c-5.812,1.439-11.212,0.35-15.993-3.383
	c-0.371-0.289-0.763-0.539-1.152-0.816c-1.849-1.36-1.666-1.899-3.884,0.182c-0.98,0.951-2.166,1.664-3.467,2.085
	c-4.234,1.231-8.769,0.927-12.801-0.862c-2.594-1.113-4.306-3.184-5.651-5.596c-0.509-0.915-0.989-1.207-1.958-0.387
	c-2.065,1.758-4.362,3.18-7.02,3.89c-2.447,0.653-4.858,0.763-6.916-1.046c-1.271-1.119-1.317-1.145-2.429,0.152
	c-2.146,2.508-4.667,4.527-7.763,5.762c-6.696,2.668-14.497-0.567-17.188-7.162c-0.448-1.104-1.087-0.921-1.807-0.466
	c-0.79,0.509-1.46,1.239-2.288,1.603c-2.823,1.223-5.515,0.777-8.037-0.918c-1.135-0.764-1.814-0.626-2.566,0.473
	c-4.746,6.934-13.227,9.443-20.979,6.209c-5.193-2.165-7.717-6.524-7.004-12.102c0.43-3.363,0.428-3.422-3.078-3.34
	c-2.993,0.068-5.984,0.348-8.979,0.436c-1.668,0.048-2.741,0.785-3.382,2.273c-0.642,1.487-1.183,2.942-1.913,4.342
	c-1.271,2.426-2.576,4.832-3.985,7.172c-0.651,1.084-1.462,2.261-2.897,2.322c-1.488,0.101-2.984,0.016-4.453-0.254
	c-2.21-0.474-3.225-2.264-2.64-4.505c0.32-1.226,0.911-2.388,1.425-3.562c0.839-1.914,1.795-3.784,2.543-5.732
	c0.566-1.452,0.369-1.635-1.165-1.641c-3.856,0-7.712,0-11.569,0c-1.865,0-2.132,0.293-2.984,2.02
	c-1.645,3.334-3.372,6.631-5.119,9.92c-0.972,1.826-2.584,2.838-4.611,3.11c-1.693,0.226-3.403,0.48-5.107,0.491
	c-8.569,0.049-17.14,0.049-25.711,0c-1.324-0.023-2.639-0.24-3.901-0.645c-2.907-0.907-3.892-2.797-3.113-5.763
	c0.445-1.696,0.977-3.368,1.444-5.06c0.393-1.416,0.041-1.988-1.386-2.289c-0.38-0.068-0.765-0.098-1.149-0.088
	c-4.156,0-8.312,0.02-12.463,0.022c-2.062,0-2.693,0.46-3.416,2.391c-1.206,3.22-2.646,6.317-4.919,8.953
	c-1.564,1.811-3.457,2.755-5.944,2.741c-13.07-0.057-26.14-0.057-39.209,0c-4.431,0.021-8.116-1.525-11.107-4.715
	c-0.854-0.914-1.432-0.805-2.375-0.16c-4.352,2.971-8.75,5.92-13.821,7.523c-4.169,1.314-8.226,0.641-11.954-1.618
	c-1.746-1.005-2.887-2.804-3.052-4.812c-0.272-2.679,0.71-5.021,1.897-7.336c0.936-1.82,1.923-3.645,2.589-5.57
	c1.229-3.545-0.158-5.127-3.93-4.715c-0.51,0.061-1.014,0.16-1.508,0.301c-2.616,0.711-5,2.094-6.918,4.01
	c-3.629,3.579-5.763,8.043-7.398,12.771c-0.687,1.986-1.603,3.773-3.243,5.132c-3.332,2.76-8.423,1.671-9.944-2.126
	c-0.608-1.526-1.58-1.859-3.078-1.089c-0.837,0.431-1.646,0.934-2.521,1.272c-5.697,2.179-11.8,3.09-17.885,2.67
	c-2.328-0.127-4.55-1.012-6.328-2.521c-2.396-2.034-3.675-4.688-4.578-7.577c-0.237-0.763-0.555-1.17-1.394-1.195
	c-2.773-0.029-5.423-1.148-7.375-3.117c-0.644-0.642-1.287-0.604-1.943-0.09c-0.707,0.555-1.389,1.143-2.07,1.729
	c-4.352,3.741-8.727,7.458-13.045,11.237c-2.124,1.856-4.477,3.128-7.307,3.438c-0.12,0.041-0.231,0.104-0.328,0.187h-2.314
	c-3.993-1.005-6.204-3.726-7.045-7.516c-0.404-1.801-0.587-3.815-0.229-5.596c0.893-4.431,1.994-8.836,3.307-13.162
	c1.78-5.891,3.861-11.7,5.763-17.549c0.539-1.661,0.069-2.767-1.363-3.747c-1.103-0.792-2.499-1.057-3.815-0.722
	c-3.393,0.852-6.897,1.465-10.107,2.783c-6.613,2.713-13.226,5.356-20.133,7.251c-6.494,1.78-13.045,3.441-19.838,2.683
	c-6.928-0.763-13.106-2.894-15.467-10.506c-0.524-2.055,0.191-4.324,0.254-4.561c0.71-2.47,2.035-4.535,4.144-6.015
	c3.1-2.187,6.384-0.9,7.261,2.78c0.132,0.499,0.208,1.011,0.226,1.526c0.016,2.513,1.45,4.026,3.708,4.402
	c2.477,0.44,4.998,0.58,7.508,0.415c6.395-0.508,12.514-2.357,18.582-4.324c6.867-2.233,13.534-5.125,20.693-6.419
	c4.614-0.834,9.194-1.447,13.808,0.224c5.086,1.841,7.335,4.756,7.375,10.143c0.031,4.929-1.729,9.36-3.8,13.734
	c-1.444,3.052-2.777,6.157-3.99,9.304c-0.509,1.289-0.667,2.739-0.784,4.133c-0.109,1.328,0.738,2.267,1.847,2.861
	c1.109,0.596,2.327,0.59,3.388-0.219c0.7-0.494,1.339-1.068,1.902-1.714c1.877-2.333,3.71-4.702,5.499-7.106
	c0.347-0.521,0.538-1.131,0.552-1.758c0.204-5.213,1.018-10.311,2.902-15.191c2.452-6.33,6.292-11.463,12.694-14.299
	c5.784-2.561,11.328,1.018,11.476,7.376c0.097,4.118-1.503,7.656-3.955,10.751c-3.026,3.815-6.31,7.442-9.53,11.109
	c-1.272,1.46-1.256,2.885,0.285,4.037c0.682,0.518,1.408,0.973,2.169,1.362c2.867,1.433,3.385,1.244,5.161-1.414
	c4.039-6.058,8.902-11.292,15.276-14.973c4.703-2.711,9.601-2.899,14.583-0.967c4.214,1.636,5.908,4.894,5.117,9.312
	c-0.661,3.688-2.971,6.3-5.595,8.673c-4.753,4.286-10.492,6.699-16.532,8.468c-0.737,0.215-1.526,0.307-2.218,0.625
	c-0.399,0.184-0.644,0.697-0.958,1.062c0.343,0.34,0.718,0.646,1.119,0.916c0.227,0.127,0.59,0.066,0.877,0.018
	c1.559-0.254,3.136-0.463,4.672-0.836c7.989-1.949,15.128-5.428,20.665-11.7c2.493-2.828,4.235-6.091,5.611-9.588
	c1.849-4.703,7.022-7.203,11.229-5.562c1.216,0.476,2.035,1.272,2.226,2.579c0.145,1.045,0.208,2.104,0.318,3.281
	c1.134-0.415,2.248-0.824,3.365-1.229c2.816-1.059,5.84-1.449,8.833-1.14c4.019,0.44,6.447,3.225,5.926,7.187
	c-0.31,2.348-1.078,4.64-1.709,6.939c-0.631,2.299-1.407,4.562-2.004,6.867c-0.254,1.018-0.201,2.289,0.87,2.703
	c0.911,0.276,1.894,0.172,2.727-0.29c3.205-1.968,6.399-3.987,9.41-6.249c1.893-1.427,3.497-3.261,5.11-5.021
	c0.448-0.488,0.814-1.526,0.58-2.034c-0.234-0.51-1.254-0.619-1.956-0.807c-1.31-0.354-2.678-0.524-3.95-0.977
	c-1.034-0.33-1.679-1.357-1.526-2.432c0.11-1.191,0.362-2.364,0.75-3.495c0.786-2.091,2.365-3.174,4.657-3.141
	c1.758,0.025,3.515-0.048,5.27,0.02c1.483,0.059,2.441-0.59,3.065-1.872c0.244-0.5,0.499-0.993,0.763-1.478
	c2.093-3.729,4.166-7.47,6.303-11.173c0.788-1.461,2.234-2.45,3.881-2.653c2.218-0.29,4.181,0.127,5.583,2.062
	c1.353,1.867,1.018,3.688-0.13,5.499c-0.819,1.305-1.62,2.622-2.418,3.939c-0.398,0.608-0.754,1.243-1.066,1.9
	c-0.167,0.374-0.187,0.795-0.056,1.183c0.079,0.173,0.687,0.173,1.042,0.137c0.636-0.066,1.272-0.27,1.897-0.323
	c2.892-0.254,5.781-0.508,8.678-0.659c1.122-0.059,1.872,0.626,2.337,1.687c1.106,2.513,0.562,5.145-1.803,6.694
	c-1.582,1.035-3.385,1.943-5.214,2.353c-3.115,0.699-6.323,1.018-9.504,1.379c-1.641,0.183-3.307,0.396-4.092,1.961
	c-1.63,3.285-3.128,6.643-4.512,10.041c-0.58,1.427,0.338,2.52,1.877,2.662c0.254,0.023,0.508,0.016,0.763,0.016h33.565
	c0.34,0.008,0.68-0.007,1.018-0.043c1.289-0.141,2.276-1.211,2.312-2.508c0.053-0.977-0.28-1.526-1.391-1.496
	c-1.413,0.036-2.827-0.006-4.235-0.127c-2.068-0.18-3.334-1.566-2.798-3.307c0.598-1.863,1.386-3.661,2.353-5.363
	c0.796-1.43,2.195-2.035,3.907-2.007c2.956,0.065,5.914,0,8.872,0.036c0.726,0.045,1.419-0.307,1.811-0.919
	c4.955-6.575,10.229-12.877,16.049-18.714c3.848-3.858,7.834-7.562,12.574-10.324c1.092-0.667,2.287-1.143,3.538-1.409
	c4.218-0.763,7.106,1.018,7.999,5.163c0.566,2.721,0.887,5.487,0.957,8.266c0.195,6.384-1.061,12.61-2.544,18.775
	c-0.86,3.561-1.956,7.089-2.964,10.626c-0.678,2.386,0,3.342,2.409,3.342c4.372,0,8.741,0,13.114,0
	c2.913-0.028,5.491-1.892,6.432-4.648c0.301-0.85,0.147-1.201-0.72-1.476c-1.435-0.456-2.632-1.251-3.052-2.847
	c-0.691-2.668,1.846-6.254,4.578-6.452c0.938-0.068,1.882-0.152,2.82-0.135c1.295,0.022,2.094-0.648,2.615-1.725
	c2.502-5.155,5.086-10.283,7.441-15.502c0.832-1.833,1.224-3.883,1.689-5.865c0.379-1.618,0.408-3.33,1.652-4.634
	c1.732-1.816,5.408-2.264,8.316-1.048c1.186,0.444,2.076,1.439,2.387,2.666c0.582,1.995,0.418,4.133-0.463,6.015
	c-1.91,4.11-3.869,8.2-5.822,12.29c-0.92,1.931-1.953,3.815-2.797,5.771c-0.846,1.956-0.332,2.597,1.729,2.597
	c3.053,0,6.09-0.071,9.129,0.03c1.487,0.051,2.408-0.496,3.107-1.757c3.482-6.285,6.957-12.577,10.532-18.821
	c1.226-2.136,2.501-4.324,4.169-6.104c2.657-2.907,7.023-3.475,10.336-1.343c1.934,1.241,2.238,2.614,1.018,4.527
	c-4.367,6.867-8.746,13.717-13.068,20.602c-0.365,0.585-0.684,1.615-0.409,2.065s1.349,0.634,2.034,0.55
	c2.929-0.367,5.848-0.815,8.755-1.346c3.397-0.618,6.526-1.757,9.28-4.054c2.887-2.454,6.328-4.167,10.027-4.987
	c4.651-1.002,7.566,0.358,9.718,4.542c0.038,0.046,0.09,0.08,0.147,0.097c0.905-0.369,1.747-0.865,2.652-1.041
	c0.906-0.175,1.941-0.277,2.737,0.046c2.889,1.17,4.046,4.087,2.925,7.005c-0.274,0.715-0.715,1.363-1.018,2.064
	c-0.538,1.113-1.011,2.258-1.414,3.426c-0.29,0.932-0.051,1.824,1.018,2.19c1.525,0.521,4.232-0.689,5.14-2.065
	c2.165-3.281,4.25-6.635,6.692-9.703c2.591-3.253,5.85-5.769,10.036-6.799c4.888-1.203,8.405,0.575,10.328,5.196
	c0.079,0.191,0.176,0.374,0.255,0.532c1.045-0.395,2.017-0.867,3.052-1.125c3.194-0.806,5.989,1.506,5.804,4.812
	c-0.048,0.877-0.371,1.745-0.6,2.609c-0.309,1.152-0.73,2.289-0.926,3.454c-0.064,0.384,0.33,1.094,0.691,1.254
	c1.78,0.781,3.938-0.106,5.036-1.679c1.811-2.589,3.576-5.252,5.689-7.586c4.524-4.99,10.003-7.948,17.008-6.552
	c1.703,0.352,3.337,0.985,4.832,1.875c1.438,0.849,1.699,2.744,1.059,4.507c-0.578,1.584-1.453,2.012-3.34,2.226
	c-2.747,0.312-5.562,0.544-8.18,1.357c-3.681,1.145-5.423,4.253-5.138,8.104c0.135,1.809,1.051,3.104,2.731,3.688
	c1.003,0.373,2.067,0.545,3.137,0.51c3.522-0.222,6.312-1.41,7.884-5.055c2.243-5.213,3.749-10.641,5.418-16.023
	c1.849-5.969,3.746-11.923,6.74-17.448C491.507,15.868,492.924,13.739,495.351,12.523z M277.674,44.193h4.362
	c2.355,0,2.777-0.129,3.332-2.444c0.732-3.052,1.167-6.198,1.677-9.311c0.154-1.015,0.229-2.041,0.221-3.067
	c0-1.897-0.877-2.429-2.508-1.526c-0.637,0.352-1.236,0.764-1.793,1.231c-4.489,3.762-8.111,8.314-11.7,12.897
	c-0.295,0.379-0.509,1.165-0.321,1.487c0.239,0.397,0.946,0.68,1.465,0.705C274.165,44.247,275.909,44.193,277.674,44.193z
	 M433.772,45.318c-0.051-1.964-1.018-2.717-2.874-2.012c-3.132,1.199-5.857,3.263-7.861,5.951c-0.618,0.815-1.113,1.717-1.471,2.676
	c-0.918,2.465,0.018,4.652,2.396,5.723c1.401,0.671,2.995,0.824,4.499,0.432c2.139-0.566,3.123-1.805,3.177-4.028
	c0.056-2.327,0.444-4.578,1.551-6.671C433.516,46.766,433.584,46.01,433.772,45.318z M386.438,59.083c0.3,0,0.6,0.022,0.897,0
	c2.544-0.216,3.686-1.439,3.93-3.963c0.181-1.866,0.509-3.724,0.853-5.567c0.19-1,0.696-1.943,0.842-2.942
	c0.317-2.192-0.786-3.052-2.783-2.134c-3.502,1.625-6.384,4.003-8.072,7.554c-0.512,1.026-0.773,2.159-0.764,3.306
	c0.12,2.33,2.183,3.754,5.098,3.75V59.083z M124.494,48.243l0.199,0.368c0.618-0.176,1.312-0.229,1.844-0.549
	c2.256-1.365,4.469-2.798,6.687-4.234c0.763-0.491,1.239-1.308,0.707-2.035c-0.29-0.404-1.32-0.583-1.892-0.425
	C128.354,42.38,126.3,45.195,124.494,48.243z"/>
<path d="M529.775,20.162c0.009,0.73-0.13,1.456-0.41,2.131c-0.514,1.233-1.503,2.207-2.744,2.701
	c-0.617,0.251-1.277,0.379-1.943,0.376c-0.709,0.008-1.412-0.126-2.067-0.396c-0.607-0.251-1.157-0.623-1.615-1.094
	c-0.457-0.476-0.816-1.037-1.058-1.651c-0.26-0.658-0.391-1.36-0.385-2.067c-0.009-0.731,0.131-1.457,0.412-2.131
	c0.514-1.236,1.507-2.211,2.752-2.701c0.624-0.251,1.291-0.379,1.964-0.376c0.666-0.002,1.326,0.125,1.943,0.376
	c0.606,0.244,1.16,0.603,1.63,1.058c0.478,0.468,0.856,1.026,1.114,1.643C529.646,18.706,529.785,19.431,529.775,20.162z
	 M528.661,20.162c0.007-0.595-0.098-1.186-0.308-1.743c-0.189-0.507-0.479-0.971-0.85-1.366c-0.359-0.378-0.792-0.679-1.271-0.885
	c-0.493-0.211-1.023-0.317-1.56-0.313c-0.543-0.005-1.081,0.102-1.582,0.313c-0.479,0.205-0.913,0.506-1.271,0.885
	c-0.371,0.395-0.659,0.859-0.85,1.366c-0.21,0.557-0.313,1.147-0.308,1.743c-0.004,0.569,0.09,1.134,0.277,1.671
	c0.176,0.503,0.447,0.967,0.801,1.366c0.355,0.394,0.788,0.709,1.271,0.926c0.525,0.234,1.096,0.351,1.672,0.341
	c0.535,0.004,1.066-0.102,1.559-0.313c0.479-0.205,0.912-0.506,1.271-0.885c0.371-0.392,0.659-0.854,0.85-1.358
	C528.571,21.35,528.672,20.757,528.661,20.162z M523.635,23.15h-0.945v-5.773h2.188c0.694,0,1.22,0.13,1.574,0.389
	c0.354,0.259,0.53,0.683,0.528,1.271c0.037,0.427-0.122,0.847-0.432,1.142c-0.307,0.25-0.681,0.4-1.073,0.433l1.614,2.543h-1.073
	l-1.49-2.464h-0.891V23.15z M524.693,19.876c0.17,0,0.339-0.007,0.509-0.02c0.147-0.01,0.292-0.05,0.425-0.117
	c0.119-0.064,0.22-0.158,0.292-0.272c0.083-0.151,0.122-0.322,0.112-0.494c0.008-0.148-0.033-0.295-0.117-0.417
	c-0.079-0.102-0.183-0.183-0.3-0.237c-0.128-0.058-0.265-0.093-0.404-0.104c-0.147-0.015-0.293-0.021-0.431-0.021h-1.145v1.674
	h1.059V19.876z"/>
</svg>
