<?xml version="1.0" encoding="utf-8"?>
<!-- Generator: Adobe Illustrator 15.1.0, SVG Export Plug-In . SVG Version: 6.00 Build 0)  -->
<!DOCTYPE svg PUBLIC "-//W3C//DTD SVG 1.1//EN" "http://www.w3.org/Graphics/SVG/1.1/DTD/svg11.dtd">
<svg version="1.1" id="Layer_1" xmlns="http://www.w3.org/2000/svg" xmlns:xlink="http://www.w3.org/1999/xlink" x="0px" y="0px"
	 width="367px" height="85px" viewBox="90.5 0 367 85" enable-background="new 90.5 0 367 85" xml:space="preserve">
<title>Caliber Logo Black_Vector_CS6</title>
<path d="M333.352,66.154c-0.073-0.098-0.152-0.188-0.239-0.272C333.199,65.967,333.278,66.057,333.352,66.154z"/>
<path d="M332.548,65.47c0.101,0.056,0.198,0.118,0.292,0.187C332.746,65.588,332.648,65.525,332.548,65.47z"/>
<path d="M346.852,65.47c0.102,0.056,0.199,0.118,0.292,0.187C347.051,65.588,346.953,65.525,346.852,65.47z"/>
<path d="M347.655,66.154c-0.073-0.098-0.153-0.188-0.239-0.272C347.502,65.967,347.582,66.057,347.655,66.154z"/>
<path d="M447.948,14.569c-2.67,0-4.834,2.165-4.834,4.834s2.164,4.834,4.834,4.834s4.835-2.165,4.835-4.834
	S450.618,14.569,447.948,14.569L447.948,14.569z M447.948,23.72c-2.384,0-4.316-1.933-4.316-4.316s1.933-4.316,4.316-4.316
	s4.316,1.933,4.316,4.316S450.332,23.72,447.948,23.72z"/>
<polygon points="444.189,18.381 445.365,18.381 445.365,21.23 446.169,21.23 446.169,18.381 447.351,18.381 447.351,17.797 
	444.189,17.797 "/>
<polygon points="450.047,17.797 449.336,20.141 448.612,17.797 447.41,17.797 447.41,21.23 448.161,21.23 448.161,18.527 
	448.944,21.23 449.722,21.23 450.512,18.527 450.512,21.23 451.256,21.23 451.256,17.797 "/>
<path d="M210.46,52.945c0.422,0.036,0.823,0.206,1.142,0.485l0.292-0.604l-5.18-7.75l-0.445,0.312
	c0.025,0.221,0.039,0.442,0.04,0.664c-0.021,0.724-0.332,1.408-0.863,1.899c-0.854,0.783-1.804,1.452-2.829,1.992
	c-3.589,2.06-7.655,3.145-11.794,3.147c-4.894,0-8.858-1.242-11.78-3.699c-3.398-2.766-5.32-6.955-5.2-11.335
	c-0.12-4.381,1.801-8.569,5.2-11.336c2.922-2.457,6.88-3.699,11.78-3.699c4.133-0.011,8.197,1.053,11.794,3.088
	c1.023,0.525,1.975,1.182,2.829,1.953c0.533,0.487,0.845,1.17,0.863,1.893c-0.002,0.222-0.016,0.443-0.04,0.664l0.438,0.292
	l5.578-8.334l-0.372-0.252c-0.386,0.403-0.9,0.659-1.454,0.724c-0.272,0-0.917-0.153-3.281-1.494
	c-2.817-1.71-5.817-3.098-8.945-4.137c-2.788-0.746-5.667-1.097-8.553-1.042c-8.998,0-15.805,2.835-20.241,8.434
	c-2.96,3.756-4.529,8.42-4.442,13.201c-0.035,3.556,0.818,7.064,2.483,10.207c1.416,2.675,3.426,4.99,5.877,6.767
	c4.217,3.114,9.695,4.695,16.29,4.695c2.902,0.052,5.797-0.307,8.6-1.062c3.123-1.048,6.116-2.444,8.925-4.164
	C209.517,53.125,210.161,52.945,210.46,52.945z"/>
<path d="M257.801,58.006l0.186-0.053c-0.241-0.146-0.463-0.32-0.664-0.519c-0.768-0.872-1.395-1.857-1.859-2.922L239.28,21.828
	c-0.375-0.669-0.586-1.418-0.618-2.185c0-0.957,0.618-1.647,1.833-2.052v-0.478h-14.443v0.492c1.195,0.465,1.8,1.229,1.8,2.258
	c-0.068,0.917-0.333,1.81-0.777,2.616l-15.592,32.586c-0.373,0.92-0.901,1.768-1.561,2.51c-0.514,0.439-1.135,0.738-1.8,0.863v0.458
	h13.434v-0.458c-1.381-0.405-2.079-1.115-2.079-2.125c0.056-0.73,0.267-1.441,0.618-2.085l2.935-6.136h19.643l2.995,6.129
	c0.363,0.632,0.589,1.334,0.664,2.059c0,0.804-0.365,1.807-2.059,2.172v0.451h13.527V58.006z M225.501,42.898l7.457-16.117
	l7.305,16.117H225.501z"/>
<path d="M295.406,52.534h-26.383V20.081c-0.035-0.598,0.144-1.188,0.505-1.667c0.404-0.416,0.921-0.705,1.487-0.83v-0.472h-12.617
	v0.478c0.561,0.139,1.073,0.429,1.481,0.837c0.366,0.471,0.547,1.059,0.511,1.653V55.94c0.038,0.595-0.141,1.183-0.505,1.653
	c-0.41,0.412-0.924,0.703-1.487,0.844v0.472h37.015c0.597-0.04,1.187,0.14,1.66,0.505c0.409,0.408,0.698,0.92,0.837,1.48h0.472
	V50.542h-0.472c-0.139,0.561-0.428,1.073-0.837,1.48C296.6,52.392,296.006,52.574,295.406,52.534z"/>
<path d="M312.188,58.438c-0.548-0.131-1.047-0.414-1.441-0.816c-0.375-0.475-0.562-1.07-0.524-1.674V20.048
	c-0.031-0.587,0.147-1.167,0.505-1.633c0.397-0.408,0.905-0.692,1.461-0.817v-0.485H299.57v0.478c0.56,0.138,1.071,0.425,1.48,0.83
	c0.361,0.463,0.541,1.042,0.505,1.627v35.913c0.037,0.594-0.142,1.182-0.505,1.653c-0.41,0.401-0.922,0.687-1.48,0.823v0.472h12.617
	V58.438z"/>
<path d="M357.131,47.016c0-4.774-2.277-7.969-6.952-9.729l-0.664-0.246l0.631-0.299c3.752-1.787,5.578-4.648,5.578-8.679
	c0-3.593-1.229-6.375-3.646-8.281c-1.271-0.985-2.738-1.687-4.304-2.059c-2.16-0.457-4.366-0.662-6.574-0.611h-28.396v0.478
	c0.561,0.139,1.073,0.428,1.481,0.837c0.363,0.472,0.543,1.06,0.505,1.653V55.94c0.038,0.595-0.142,1.183-0.505,1.653
	c-0.407,0.411-0.92,0.703-1.481,0.844v0.472h28.688c2.291,0.046,4.577-0.194,6.807-0.718c1.738-0.439,3.367-1.23,4.788-2.324
	C355.764,53.789,357.131,50.774,357.131,47.016z M323.477,23.508h16.542c2.557,0,4.329,0.392,5.425,1.188s1.674,2.172,1.674,4.044
	s-0.591,3.208-1.767,4.09c-1.036,0.771-2.782,1.149-5.312,1.149h-16.562V23.508z M345.962,51.272
	c-1.328,0.85-3.46,1.262-6.468,1.262h-16.018V40.382h16.018c2.981,0,5.159,0.425,6.468,1.255c1.554,1.009,2.344,2.656,2.344,4.814
	s-0.816,3.838-2.37,4.821H345.962z"/>
<path d="M396.305,59.434c0.408,0.408,0.697,0.92,0.836,1.48h0.479V50.542h-0.479c-0.139,0.56-0.428,1.072-0.836,1.48
	c-0.462,0.364-1.041,0.546-1.627,0.512h-27.565V40.315h17.511c0.59-0.034,1.17,0.153,1.627,0.524
	c0.398,0.408,0.684,0.911,0.83,1.461h0.472V32.187h-0.472c-0.137,0.56-0.424,1.072-0.83,1.481c-0.461,0.364-1.04,0.545-1.627,0.511
	h-17.511V23.508h26.828c0.587-0.034,1.167,0.15,1.627,0.518c0.403,0.408,0.689,0.917,0.83,1.474h0.472V15.127h-0.472
	c-0.143,0.557-0.431,1.066-0.837,1.474c-0.459,0.369-1.039,0.553-1.627,0.518h-37.479v0.478c0.562,0.137,1.073,0.427,1.48,0.837
	c0.366,0.47,0.548,1.058,0.512,1.653v35.859c0.038,0.598-0.144,1.188-0.512,1.66c-0.409,0.406-0.921,0.693-1.48,0.83v0.472h38.224
	C395.266,58.879,395.845,59.065,396.305,59.434z"/>
<path d="M438.592,53.464l-8.514-12.106l0.472-0.073c7.584-1.162,11.289-5.04,11.289-11.854c0.01-1.923-0.374-3.829-1.129-5.598
	c-0.742-1.735-1.98-3.214-3.56-4.25c-1.475-0.949-3.122-1.598-4.848-1.912c-2.521-0.421-5.074-0.607-7.63-0.558h-26.237v0.478
	c0.561,0.14,1.072,0.429,1.481,0.837c0.363,0.472,0.543,1.06,0.505,1.653v35.913c0.035,0.586-0.144,1.164-0.505,1.627
	c-0.412,0.4-0.923,0.682-1.481,0.816v0.472h12.617v-0.472c-0.557-0.13-1.066-0.415-1.467-0.823
	c-0.372-0.464-0.559-1.048-0.525-1.641v-14.35h11.774l0.086,0.126l8.587,12.491c1.328,1.992,1.514,2.57,1.514,2.869
	c0,0.664-0.531,1.155-1.587,1.368v0.444h14.729v-0.418c-0.877-0.09-1.705-0.449-2.37-1.029
	C440.599,56.244,439.526,54.9,438.592,53.464z M428.186,35.036c-1.499,0.156-3.008,0.221-4.516,0.192h-14.609V23.508h14.609
	c1.512-0.028,3.024,0.029,4.529,0.173c0.869,0.119,1.709,0.398,2.477,0.823c1.667,0.903,2.518,2.537,2.518,4.861
	s-0.844,3.984-2.518,4.861C429.901,34.642,429.058,34.917,428.186,35.036z"/>
<path d="M318.735,73.047l-5.571-8.945c-0.121-0.166-0.193-0.365-0.206-0.57c0.072-0.307,0.349-0.52,0.664-0.512V62.74h-5.16v0.253
	c0.318,0.016,0.58,0.255,0.624,0.571c-0.03,0.238-0.119,0.467-0.259,0.664l-5.379,8.918c-0.132,0.25-0.307,0.476-0.518,0.664
	c-0.198,0.133-0.427,0.215-0.664,0.239v0.252h4.814V74.05c-0.479-0.1-0.718-0.272-0.718-0.531c0.021-0.196,0.093-0.384,0.206-0.545
	l0.989-1.64h6.641l1.003,1.633c0.114,0.157,0.187,0.34,0.213,0.531c-0.063,0.336-0.371,0.568-0.711,0.538v0.253h5.359v-0.253
	c-0.257-0.031-0.501-0.128-0.711-0.278C319.111,73.553,318.904,73.314,318.735,73.047z M308.469,69.826L308.469,69.826l2.424-4.15
	l0,0l2.384,4.15H308.469z"/>
<path d="M332.84,65.656c-0.094-0.068-0.191-0.131-0.292-0.187l-0.166-0.093c-1.116-0.424-2.308-0.611-3.5-0.551h-7.81v0.219
	c0.193,0.035,0.375,0.114,0.531,0.232c0.109,0.108,0.165,0.259,0.153,0.412v7.789c0.009,0.156-0.049,0.309-0.159,0.418
	c-0.153,0.117-0.334,0.193-0.525,0.22v0.219h4.217v-0.226c-0.193-0.033-0.375-0.113-0.531-0.232
	c-0.107-0.109-0.162-0.259-0.152-0.412v-3.074h4.276c1.28,0.087,2.562-0.141,3.732-0.664c0.778-0.408,1.251-1.228,1.215-2.105
	c0.005-0.471-0.13-0.932-0.385-1.328l-0.1-0.133c-0.073-0.096-0.153-0.188-0.239-0.271C333.022,65.805,332.934,65.727,332.84,65.656
	z M330.276,68.538c-0.51,0.142-1.038,0.199-1.567,0.173h-4.104v-2.186h4.104c0.529-0.027,1.059,0.031,1.567,0.173
	c0.509,0.179,0.776,0.736,0.597,1.245c-0.097,0.277-0.313,0.495-0.59,0.595H330.276z"/>
<path d="M347.15,65.656c-0.094-0.068-0.191-0.131-0.292-0.187l-0.14-0.093c-1.115-0.424-2.308-0.611-3.5-0.551h-7.842v0.219
	c0.192,0.035,0.375,0.114,0.531,0.232c0.108,0.108,0.164,0.259,0.152,0.412v7.789c0.01,0.156-0.049,0.309-0.159,0.418
	c-0.153,0.117-0.334,0.193-0.524,0.22v0.219h4.217v-0.226c-0.193-0.033-0.376-0.113-0.531-0.232
	c-0.107-0.109-0.163-0.259-0.153-0.412v-3.074h4.276c1.279,0.087,2.562-0.141,3.732-0.664c0.778-0.408,1.252-1.228,1.215-2.105
	c0.004-0.471-0.129-0.932-0.385-1.328c0-0.046-0.066-0.086-0.1-0.133c-0.072-0.096-0.152-0.188-0.239-0.271
	C347.328,65.805,347.242,65.727,347.15,65.656z M344.587,68.538c-0.51,0.142-1.038,0.199-1.567,0.173h-4.104v-2.186h4.104
	c0.529-0.027,1.059,0.031,1.567,0.173c0.509,0.181,0.773,0.739,0.593,1.247C345.082,68.222,344.863,68.439,344.587,68.538z"/>
<path d="M359.947,72.622h-6.734v-6.939c-0.01-0.153,0.046-0.303,0.153-0.412c0.155-0.118,0.338-0.196,0.531-0.226v-0.219h-4.217
	v0.219c0.192,0.035,0.374,0.114,0.531,0.232c0.108,0.108,0.164,0.259,0.152,0.412v7.789c0.009,0.156-0.048,0.309-0.159,0.418
	c-0.153,0.117-0.334,0.193-0.524,0.22v0.219h10.267c0.182-0.011,0.365,0.03,0.524,0.12c0.138,0.107,0.237,0.256,0.285,0.425h0.266
	v-2.789h-0.266c-0.053,0.167-0.154,0.315-0.292,0.425C360.307,72.601,360.126,72.637,359.947,72.622z"/>
<path d="M362.969,65.683v7.789c0.009,0.156-0.049,0.309-0.16,0.419c-0.152,0.116-0.334,0.191-0.524,0.219v0.219h4.217v-0.219
	c-0.193-0.033-0.376-0.113-0.531-0.232c-0.106-0.109-0.163-0.259-0.152-0.412v-7.782c-0.009-0.153,0.046-0.302,0.152-0.412
	c0.155-0.118,0.339-0.195,0.531-0.226v-0.219h-4.217v0.219c0.192,0.035,0.375,0.114,0.531,0.232
	C362.922,65.385,362.979,65.531,362.969,65.683z"/>
<path d="M381.602,73.153l-4.542-6.827c-0.149-0.191-0.244-0.422-0.272-0.664c0.036-0.309,0.281-0.552,0.592-0.584v-0.252h-4.648
	v0.219c0.301,0.025,0.547,0.253,0.598,0.551c-0.018,0.253-0.103,0.496-0.246,0.704l-4.383,7.039
	c-0.123,0.216-0.283,0.409-0.472,0.571c-0.181,0.113-0.386,0.182-0.598,0.199v0.213h4.383v-0.213c-0.32,0.006-0.6-0.217-0.664-0.531
	c0.025-0.213,0.103-0.416,0.226-0.591l0.625-1.043h5.538l0.664,0.977c0.153,0.19,0.247,0.421,0.272,0.664
	c-0.051,0.321-0.34,0.55-0.664,0.524v0.213h4.881v-0.213c-0.237-0.021-0.466-0.102-0.664-0.232
	C381.984,73.667,381.773,73.424,381.602,73.153z M372.969,70.637L372.969,70.637l1.88-3.082l0,0l1.992,3.082h-3.878H372.969z"/>
<path d="M394.783,65.683v5.272l0,0l-6.441-5.066c-0.178-0.105-0.304-0.281-0.345-0.485c0.056-0.21,0.253-0.353,0.472-0.339v-0.238
	h-4.582v0.219c0.192,0.035,0.375,0.114,0.531,0.232c0.108,0.108,0.164,0.259,0.152,0.412v7.789c0.01,0.156-0.049,0.309-0.159,0.418
	c-0.153,0.117-0.334,0.193-0.524,0.22v0.219h3.984v-0.226c-0.191-0.033-0.372-0.113-0.525-0.232c-0.11-0.11-0.168-0.263-0.159-0.418
	v-5.426l0,0l6.375,4.98c0.312,0.252,0.505,0.412,0.591,0.498c0.076,0.062,0.124,0.154,0.133,0.252c0,0.16-0.159,0.272-0.471,0.326
	v0.212h4.276v-0.192c-0.193-0.033-0.376-0.113-0.531-0.232c-0.107-0.109-0.163-0.259-0.153-0.412v-7.782
	c-0.009-0.153,0.047-0.302,0.153-0.412c0.155-0.118,0.338-0.195,0.531-0.226v-0.219h-3.984v0.219
	c0.192,0.029,0.376,0.107,0.531,0.226C394.742,65.381,394.795,65.531,394.783,65.683z"/>
<path d="M411.704,67.96c-0.004,0.04-0.004,0.08,0,0.12l0.219,0.126l1.793-2.065l-0.226-0.14c-0.122,0.077-0.261,0.126-0.405,0.14
	c-0.298-0.059-0.585-0.164-0.85-0.312c-0.831-0.402-1.701-0.719-2.597-0.942c-0.855-0.186-1.729-0.274-2.604-0.266
	c-2.656,0-4.602,0.664-5.877,1.992c-0.778,0.783-1.216,1.843-1.215,2.948c-0.001,0.797,0.229,1.576,0.664,2.244
	c0.427,0.651,0.997,1.197,1.667,1.594c1.464,0.797,3.116,1.184,4.781,1.116c0.87,0.011,1.739-0.079,2.59-0.266
	c0.893-0.228,1.76-0.544,2.59-0.943c0.265-0.147,0.552-0.253,0.85-0.312c0.145,0.014,0.283,0.061,0.405,0.139L413.716,73
	l-1.793-2.078l-0.219,0.133c0,0.192,0,0.226,0,0.232c0,0.246-0.386,0.524-1.188,0.844c-0.964,0.393-1.994,0.598-3.035,0.604
	c-1.129,0.04-2.245-0.24-3.221-0.81c-1.306-0.669-1.822-2.27-1.153-3.575c0.254-0.496,0.657-0.899,1.153-1.153
	c0.973-0.576,2.091-0.86,3.221-0.816c0.945,0.003,1.883,0.171,2.77,0.498c0.976,0.352,1.454,0.664,1.454,0.949
	C411.707,67.871,411.707,67.916,411.704,67.96z"/>
<path d="M426.639,72.622h-7.63v-2.345h4.535c0.184-0.01,0.366,0.033,0.524,0.127c0.137,0.105,0.236,0.252,0.286,0.418h0.266V68.1
	h-0.266c-0.055,0.168-0.159,0.316-0.299,0.425c-0.157,0.09-0.338,0.132-0.519,0.12h-4.535v-2.119h7.305
	c0.183-0.011,0.365,0.031,0.524,0.12c0.14,0.106,0.239,0.256,0.286,0.425h0.266v-2.789h-0.266c-0.048,0.168-0.147,0.317-0.286,0.425
	c-0.159,0.091-0.342,0.132-0.524,0.12h-10.831v0.219c0.193,0.035,0.375,0.114,0.531,0.232c0.108,0.108,0.165,0.259,0.153,0.412
	v7.789c0.009,0.156-0.049,0.309-0.16,0.418c-0.152,0.117-0.333,0.193-0.524,0.22v0.219h11.163c0.182-0.01,0.361,0.034,0.518,0.126
	c0.137,0.105,0.235,0.252,0.279,0.419h0.299v-2.789h-0.279c-0.046,0.169-0.146,0.317-0.285,0.425
	C427.007,72.604,426.822,72.641,426.639,72.622z"/>
<path d="M441.295,71.439c0-0.523-0.186-1.029-0.525-1.428c-0.294-0.351-0.664-0.63-1.082-0.816
	c-1.073-0.421-2.214-0.646-3.367-0.664l-1.693-0.1c-0.727-0.021-1.449-0.115-2.158-0.279c-0.306-0.045-0.54-0.295-0.564-0.604
	c0-0.426,0.393-0.751,1.169-0.977c0.602-0.162,1.224-0.24,1.847-0.232c0.812,0,1.62,0.094,2.41,0.279
	c0.641,0.125,1.253,0.369,1.807,0.717c0.147,0.1,0.235,0.267,0.232,0.445l0.238,0.105l1.435-2.197l-0.239-0.1
	c-0.133,0.093-0.289,0.146-0.451,0.152c-0.213-0.024-0.421-0.08-0.617-0.166c-0.828-0.314-1.679-0.567-2.544-0.757
	c-0.757-0.149-1.526-0.224-2.298-0.22c-1.311-0.039-2.613,0.217-3.812,0.751c-0.998,0.369-1.668,1.313-1.687,2.377
	c-0.001,0.454,0.133,0.897,0.385,1.275c0.267,0.398,0.637,0.718,1.069,0.923c0.396,0.188,0.816,0.322,1.249,0.398
	c0.688,0.113,1.382,0.186,2.078,0.219l1.68,0.113c0.625,0.027,1.247,0.105,1.859,0.232c0.407,0.021,0.739,0.332,0.784,0.737
	c0,0.438-0.379,0.757-1.122,0.949c-0.667,0.167-1.353,0.247-2.039,0.239c-0.877-0.003-1.752-0.096-2.609-0.279
	c-0.655-0.105-1.286-0.33-1.859-0.664c-0.134-0.082-0.217-0.228-0.22-0.385v-0.033l-0.252-0.08l-1.183,2.338l0.246,0.08
	c0.099-0.121,0.243-0.193,0.398-0.199c0.1,0.004,0.198,0.023,0.292,0.06c1.679,0.604,3.449,0.911,5.233,0.909
	c1.462,0.062,2.919-0.214,4.256-0.81C440.609,73.386,441.262,72.474,441.295,71.439z"/>
<path d="M127.512,3.228c-8.228-0.239-14.716,1.992-23.242,2.948c0,0-4.648,0.093-7.052,0.066l0.113,42.194
	c0.376,3.934,1.409,7.776,3.055,11.369c5.133,11.169,17.677,12.026,27.153,21.987l-0.086-0.113c0,0-0.113,0.199,0.086,0h0.246
	h-0.246l0,0c9.477-9.961,16.482-8.348,25.646-19.357c2.131-2.563,4.648-8.739,4.509-13.64l0.113-42.434c-2.477,0-7.119,0-7.119,0
	C142.407,5.259,135.66,2.995,127.512,3.228z M127.578,75.955c-5.312-7.716-24.843-8.188-25.4-28.913V19.815
	c4.848-2.483,16.104-6.992,25.4-6.807h0.146c9.297-0.186,20.254,4.237,25.082,6.734l-0.033,27.346
	C152.812,67.117,132.419,68.093,127.578,75.955L127.578,75.955"/>
<path d="M141.623,42.965L141.623,42.965z"/>
<path d="M141.616,42.952L141.616,42.952z"/>
<path d="M109.058,51.505c0.942-1.423,2.176-2.63,3.619-3.54c-0.173-2.961,0.438-4.137,0.73-4.582
	c-0.571,0.094-3.467,1.621-4.303,2.982C108.506,47.348,108.486,50.801,109.058,51.505z"/>
<path d="M120.679,60.643c4.598,0.658,9.267,0.658,13.865,0v-3.016h-13.865V60.643z"/>
<path d="M128.368,52.733c0.531,0,0.558-0.14,0.558-0.14c2.583-8.514,5.505-10.094,5.704-15.2c0.252-7.398-3.732-9.795-5.584-22.027
	l-0.664-0.1v37.467H128.368z"/>
<path d="M126.96,52.985c-0.531,0-0.558-0.14-0.558-0.14c-2.59-5.365-5.545-7.431-5.718-11.382c-0.325-7.305,4.23-8.307,5.207-25.746
	l1.069-0.199V52.985z"/>
<path d="M132.346,61.758c0,0-3.54,0.956-9.603,0c-0.352,0.379-2.072,2.443-6.773,3.932c0,0,2.377,0.736,8.148-1.435
	c-0.239,2.587,1.099,5.063,3.394,6.282h0.106c2.287-1.222,3.619-3.694,3.38-6.275c5.764,2.151,8.148,1.48,8.148,1.48
	C134.444,64.222,132.346,61.758,132.346,61.758z"/>
<path d="M113.4,43.39l0.14,1.103c0,0,1.062-1.461,3.984-0.352c2.922,1.108,7.377,7.265,7.77,9.961c0.179,0.914,0.179,1.854,0,2.769
	h-2.896c0.058-0.474,0.058-0.954,0-1.428c-0.133-0.465-1.68-8.294-9.649-10.073L113.4,43.39z"/>
<path d="M145.76,51.505c-0.942-1.423-2.176-2.63-3.619-3.54c0.172-2.961-0.438-4.137-0.73-4.582
	c0.571,0.094,3.466,1.621,4.303,2.982C146.312,47.348,146.331,50.801,145.76,51.505z"/>
<path d="M141.417,43.39l-0.139,1.103c0,0-1.062-1.461-3.984-0.352c-2.922,1.108-7.351,7.251-7.723,9.934
	c-0.179,0.915-0.179,1.855,0,2.77h2.869c-0.058-0.475-0.058-0.953,0-1.428c0.113-0.438,1.68-8.268,9.656-10.041L141.417,43.39z"/>
</svg>
