<?xml version="1.0" encoding="utf-8"?>
<!-- Generator: Adobe Illustrator 15.1.0, SVG Export Plug-In . SVG Version: 6.00 Build 0)  -->
<!DOCTYPE svg PUBLIC "-//W3C//DTD SVG 1.1//EN" "http://www.w3.org/Graphics/SVG/1.1/DTD/svg11.dtd">
<svg version="1.1" id="Layer_1" xmlns="http://www.w3.org/2000/svg" xmlns:xlink="http://www.w3.org/1999/xlink" x="0px" y="0px"
	 width="417px" height="85px" viewBox="-10 0 417 85" enable-background="new -10 0 417 85" xml:space="preserve">
<g>
	<title>Lynx_Logo</title>
	<path d="M401.121,76.011c0.01,0.737-0.131,1.47-0.413,2.151c-0.519,1.246-1.518,2.23-2.771,2.729
		c-0.623,0.253-1.289,0.382-1.96,0.38c-0.716,0.009-1.428-0.127-2.089-0.4c-0.613-0.254-1.167-0.63-1.631-1.105
		c-0.462-0.48-0.824-1.046-1.066-1.666c-0.263-0.666-0.394-1.373-0.388-2.088c-0.009-0.737,0.133-1.47,0.416-2.149
		c0.518-1.248,1.52-2.232,2.776-2.728c0.632-0.255,1.309-0.384,1.99-0.38c0.673-0.004,1.34,0.127,1.962,0.38
		c0.612,0.247,1.171,0.609,1.646,1.068c0.482,0.471,0.865,1.035,1.125,1.659C400.996,74.543,401.135,75.273,401.121,76.011z
		 M399.998,76.011c0.006-0.599-0.1-1.194-0.31-1.757c-0.192-0.512-0.483-0.979-0.859-1.377c-0.361-0.379-0.796-0.679-1.277-0.885
		c-0.498-0.213-1.033-0.32-1.574-0.316c-0.548-0.004-1.092,0.104-1.595,0.316c-0.485,0.204-0.923,0.505-1.287,0.885
		c-0.374,0.397-0.666,0.865-0.858,1.377c-0.213,0.562-0.316,1.158-0.31,1.757c-0.004,0.575,0.091,1.146,0.28,1.688
		c0.179,0.508,0.453,0.976,0.81,1.378c0.355,0.396,0.787,0.716,1.271,0.937c0.531,0.236,1.107,0.354,1.688,0.345
		c0.541,0.005,1.076-0.104,1.574-0.316c0.481-0.206,0.916-0.506,1.277-0.886c0.375-0.396,0.665-0.86,0.86-1.37
		C399.901,77.219,400.006,76.616,399.998,76.011z M394.937,79.02h-0.955v-5.82h2.212c0.701,0,1.23,0.132,1.588,0.394
		s0.536,0.688,0.536,1.277c0,0.524-0.147,0.909-0.442,1.152c-0.307,0.254-0.685,0.408-1.081,0.442l1.629,2.559h-1.081l-1.504-2.488
		h-0.9v2.488L394.937,79.02L394.937,79.02z M396.005,75.716c0.178,0,0.348-0.008,0.514-0.021c0.149-0.011,0.295-0.053,0.429-0.12
		c0.12-0.064,0.222-0.16,0.294-0.274c0.084-0.152,0.123-0.326,0.113-0.5c0.008-0.15-0.034-0.3-0.12-0.423
		c-0.08-0.104-0.184-0.185-0.303-0.239c-0.129-0.057-0.266-0.093-0.407-0.104c-0.149-0.014-0.294-0.021-0.442-0.021h-1.15v1.701
		h1.066L396.005,75.716z"/>
	<polygon points="17.999,4.313 -1.187,4.313 -1.187,65.302 -1.187,81.344 17.999,81.344 56.729,81.344 56.729,65.302 17.999,65.302 
			"/>
	<polygon points="242.967,33.832 276.771,63.111 290.465,63.111 290.465,4.313 271.598,4.313 271.598,32.109 240.404,4.313 
		223.743,4.313 223.743,63.111 242.967,63.111 	"/>
	<polygon points="23.349,4.313 23.349,20.356 62.078,20.356 62.078,81.344 81.265,81.344 81.265,20.356 81.265,4.313 62.078,4.313 	
		"/>
	<rect x="23.349" y="25.995" width="33.374" height="33.667"/>
	<polygon points="155.401,49.622 126.479,49.622 126.479,4.313 99.581,4.313 99.581,49.622 99.581,62.747 99.581,63.059 
		155.401,63.059 	"/>
	<rect x="99.581" y="73.335" width="36.805" height="7.466"/>
	<path d="M194.528,51.902L218.15,4.314h-20.644c0,0-7.208,15.319-14.707,31.042L169.085,4.32h-26.254l26.689,53.596
		c-5.457,10.173-13.713,13.135-16.302,13.508c-4.867,1.122-7.875,0.798-7.875,0.798v8.584h12.667
		C180.948,80.316,194.528,51.902,194.528,51.902z"/>
	<polygon points="323.028,63.111 335.811,48.668 347.581,63.111 376.036,63.111 350.62,31.935 375.064,4.313 347.981,4.313 
		337.843,16.257 328.106,4.313 299.651,4.313 323.329,33.359 298.073,63.111 	"/>
	<path d="M180.493,79.746h195.543v-6.62H188.657C188.657,73.127,184.372,77.978,180.493,79.746z"/>
</g>
</svg>
