<?xml version="1.0" encoding="utf-8"?>
<!-- Generator: Adobe Illustrator 15.1.0, SVG Export Plug-In . SVG Version: 6.00 Build 0)  -->
<!DOCTYPE svg PUBLIC "-//W3C//DTD SVG 1.1//EN" "http://www.w3.org/Graphics/SVG/1.1/DTD/svg11.dtd">
<svg version="1.1" id="Layer_3" xmlns="http://www.w3.org/2000/svg" xmlns:xlink="http://www.w3.org/1999/xlink" x="0px" y="0px"
	 width="432px" height="85px" viewBox="60.5 0 432 85" enable-background="new 60.5 0 432 85" xml:space="preserve">
<title>Verona Logo_Vector_CS6</title>
<path d="M434.85,65.93h-13.948c0,0-0.055-20.521-0.055-30.056c0.033-1.091-0.046-2.184-0.236-3.259
	c-0.13-0.727-0.368-1.43-0.708-2.085c-0.576-1.146-1.733-1.886-3.016-1.927c-1.45-0.085-2.896,0.229-4.178,0.909
	c-1.168,0.614-2.238,1.396-3.177,2.322c-1.28,1.264-2.43,2.653-3.432,4.147c-0.212,0.285-0.316,0.635-0.293,0.99
	c0,0,0,28.542-0.015,28.957h-13.947c0,0,0-32.646,0-47.635h13.988c0,1.7-0.017,4.192-0.015,5.904c0,0.236,0.019,0.489,0.026,0.708
	c0.323,0.071,0.375-0.175,0.472-0.307c1.194-1.514,2.582-2.864,4.129-4.015c2.881-2.142,6.371-3.308,9.961-3.33
	c1.766-0.06,3.528,0.173,5.218,0.687c3.958,1.285,6.594,3.96,8.091,7.793c0.741,1.904,1.034,3.899,1.127,5.93
	c0.019,0.416,0.014,0.834,0.014,1.252C434.854,43.508,434.854,65.504,434.85,65.93z"/>
<path d="M342.722,42.095c-0.026-3.021,0.293-5.982,1.214-8.847c2.449-7.607,7.584-12.399,15.305-14.406
	c3.306-0.86,6.662-0.961,10.037-0.73c2.471,0.144,4.904,0.664,7.219,1.54c6.429,2.501,10.628,7.085,12.707,13.653
	c0.707,2.303,1.098,4.691,1.164,7.099c0.115,2.406-0.016,4.817-0.388,7.196c-0.55,3.264-1.599,6.34-3.45,9.107
	c-2.932,4.381-7.012,7.148-12.057,8.535c-2.262,0.615-4.591,0.948-6.934,0.992c-2.149,0.07-4.301-0.056-6.427-0.379
	c-9.194-1.496-15.233-7.793-17.36-15.487C343.02,47.673,342.672,44.888,342.722,42.095z M377.153,41.764
	c0.015-2.134-0.213-4.263-0.679-6.346c-0.521-2.206-1.332-4.291-2.746-6.088c-2.436-3.092-5.637-4.083-9.424-3.28
	c-2.099,0.446-3.715,1.679-4.996,3.368c-0.791,1.054-1.426,2.215-1.891,3.448c-0.736,1.987-1.189,4.069-1.344,6.183
	c-0.174,2.015-0.174,4.041,0,6.055c0.152,2.146,0.608,4.26,1.356,6.277c0.565,1.539,1.409,2.962,2.489,4.197
	c1.339,1.542,3.197,2.539,5.222,2.803c1.052,0.135,2.116,0.117,3.162-0.052c2.257-0.289,4.304-1.468,5.687-3.272
	c0.549-0.713,1.01-1.488,1.373-2.311c0.627-1.441,1.072-2.956,1.324-4.508C377.033,46.279,377.132,44.287,377.153,41.764
	L377.153,41.764z"/>
<path d="M439.875,29.708l-0.033-8.502c0.312-0.123,0.574-0.236,0.841-0.333c3.494-1.289,7.128-2.161,10.826-2.598
	c3.189-0.385,6.414-0.393,9.605-0.024c2.044,0.223,4.045,0.742,5.939,1.542c1.602,0.669,3.048,1.661,4.251,2.912
	c1.653,1.759,2.598,3.878,3.03,6.228c0.215,1.233,0.314,2.484,0.297,3.736c0,6.515,0,13.03,0,19.545c0,1.059,0,2.125,0.265,3.158
	c0.048,0.186,0.102,0.37,0.161,0.553c0.496,1.567,1.653,2.512,3.618,2.309c0.285-0.027,0.956-0.137,0.956-0.137l0.364,6.967
	c0,0-0.185,0.078-0.298,0.111c-2.572,0.744-5.184,1.209-7.879,1.035c-1.126-0.063-2.238-0.279-3.307-0.643
	c-2.195-0.726-3.984-2.34-4.931-4.449c-0.095-0.203-0.17-0.416-0.271-0.617c-0.103-0.223-0.366-0.32-0.589-0.219
	c-0.021,0.01-0.04,0.02-0.059,0.032c-0.204,0.155-0.397,0.321-0.581,0.501c-1.62,1.514-3.456,2.779-5.448,3.755
	c-3.778,1.788-7.685,2.198-11.714,1.087c-4.72-1.269-8.238-5.214-8.961-10.047c-0.34-2.064-0.284-4.174,0.163-6.217
	c0.634-2.947,2.286-5.577,4.667-7.427c2.057-1.653,4.409-2.728,6.922-3.474c2.098-0.601,4.247-1.004,6.42-1.204
	c2.463-0.253,4.934-0.236,7.403-0.25c0.345,0,0.709,0.085,1.039-0.125c0.04-0.085,0.067-0.176,0.081-0.27
	c-0.017-1.7-0.026-3.401-0.071-5.099c-0.025-0.417-0.101-0.83-0.225-1.228c-0.433-1.746-1.675-3.18-3.342-3.857
	c-0.946-0.4-1.953-0.64-2.978-0.708c-3.808-0.283-7.478,0.369-11.051,1.653c-1.475,0.54-2.914,1.17-4.311,1.889
	C440.463,29.417,439.875,29.708,439.875,29.708z M462.661,44.258c-0.281-0.019-0.473-0.042-0.654-0.042
	c-1.188,0-2.374,0.005-3.562,0.015c-1.283,0.016-2.562,0.154-3.819,0.412c-1.393,0.243-2.729,0.743-3.939,1.475
	c-1.513,0.901-2.55,2.426-2.834,4.164c-0.105,0.664-0.138,1.34-0.094,2.012c0.187,2.979,2.585,5.339,5.566,5.479
	c1.576,0.066,3.146-0.245,4.577-0.908c1.509-0.715,2.912-1.633,4.173-2.729c0.436-0.328,0.677-0.855,0.64-1.4
	c-0.03-2.534-0.012-5.068-0.014-7.602c-0.003-0.27-0.023-0.506-0.04-0.877V44.258z"/>
<path d="M310.734,44.627h-28.34c-0.236,0.21-0.158,0.408-0.139,0.588c0.174,1.889,0.659,3.736,1.436,5.467
	c1.523,3.333,4.095,5.433,7.598,6.436c1.299,0.363,2.635,0.575,3.981,0.633c3.826,0.186,7.558-0.412,11.208-1.457
	c1.203-0.342,2.384-0.753,3.576-1.129c0.205-0.063,0.42-0.099,0.635-0.146c0.135,0.801,0.143,7.744,0,8.635
	c-0.283,0.086-0.585,0.182-0.89,0.27c-3.394,0.971-6.862,1.653-10.37,2.043c-2.649,0.301-5.319,0.371-7.98,0.21
	c-3.221-0.2-6.377-0.819-9.324-2.159c-6.332-2.857-10.365-7.713-12.144-14.43c-0.819-3.209-1.115-6.529-0.876-9.834
	c0.121-2.567,0.604-5.104,1.434-7.536c1.727-4.865,4.735-8.703,9.197-11.35c2.491-1.479,5.21-2.286,8.075-2.659
	c1.816-0.218,3.65-0.268,5.477-0.149c2.119,0.105,4.209,0.543,6.191,1.299c3.158,1.179,5.807,3.419,7.494,6.336
	c1.287,2.178,2.095,4.537,2.652,6.988c0.547,2.407,0.883,4.856,1.004,7.321c0.061,1.25,0.108,2.501,0.153,3.75
	C310.789,44.013,310.756,44.264,310.734,44.627z M282.113,37.516c0.288,0.021,0.566,0.057,0.846,0.059
	c7.574,0.078,14.777,0.023,15.514-0.127c0.023-0.146,0.038-0.292,0.045-0.439c0.011-1.283-0.092-2.565-0.305-3.831
	c-0.189-1.204-0.543-2.377-1.049-3.486c-1.058-2.227-2.766-3.585-5.244-3.845c-2.93-0.307-5.385,0.588-7.152,3.023
	c-0.441,0.629-0.824,1.298-1.143,1.998c-0.67,1.494-1.123,3.076-1.346,4.698C282.18,36.186,281.99,36.807,282.113,37.516z"/>
<path d="M243.457,65.93c0,0-12.281-31.961-18.268-47.636h0.265h14.486c1.597,4.095,3.542,9.104,5.132,13.204
	c2.261,5.826,4.521,11.658,6.78,17.5c0.125,0.324,0.267,0.641,0.472,1.11c1.126-2.759,2.097-5.401,3.12-8.03
	c1.037-2.66,2.055-5.328,3.07-7.992c1.016-2.664,2.022-5.271,3.042-7.905c1.021-2.633,2.01-5.264,3.049-7.883
	c3.543,0,10.651,0,10.651,0c-1.287,3.354-2.992,7.735-4.284,11.088c-4.562,11.849-14.111,36.543-14.111,36.543h-13.415H243.457z"/>
<path d="M326.882,18.32c0.11,1.096,0.045,2.125,0.057,3.139s0,1.972,0,2.969c0.368,0,0.428-0.25,0.548-0.411
	c0.812-1.119,1.748-2.141,2.789-3.049c2.203-1.896,4.904-3.121,7.782-3.528c1.24-0.175,2.495-0.228,3.745-0.158
	c0.701,0.016,1.395,0.149,2.053,0.394v12.673c-0.182-0.038-2.428-0.753-3.398-0.944c-3.798-0.708-7.188,0.187-10.141,2.69
	c-1.178,1.045-2.213,2.242-3.076,3.559c-0.213,0.283-0.32,0.633-0.302,0.987v29.284h-14.012c0,0,0-31.32,0-46.312
	c-0.03-0.387-0.017-0.776,0.042-1.159c0.04-0.047,0.084-0.091,0.131-0.13c0.027-0.016,0.059-0.024,0.092-0.024l13.096-0.028
	C326.461,18.272,326.619,18.298,326.882,18.32z"/>
<path d="M64.396,1.748v81.507h81.431V1.748H64.396z M125.497,62.953H84.753V22.174h40.744V62.953z"/>
<rect x="160.599" y="22.176" width="40.737" height="40.777"/>
<path d="M486.074,22.403c0.009,0.611-0.107,1.218-0.342,1.783c-0.43,1.032-1.257,1.847-2.296,2.26
	c-0.516,0.209-1.067,0.316-1.625,0.314c-0.593,0.007-1.182-0.106-1.73-0.333c-0.508-0.209-0.968-0.521-1.352-0.914
	c-0.383-0.398-0.684-0.868-0.886-1.382c-0.217-0.551-0.326-1.139-0.32-1.731c-0.008-0.612,0.109-1.219,0.345-1.783
	c0.429-1.034,1.259-1.85,2.3-2.26c0.525-0.211,1.087-0.318,1.653-0.314c0.557-0.002,1.109,0.104,1.625,0.314
	c0.507,0.205,0.97,0.505,1.362,0.886c0.4,0.391,0.717,0.858,0.934,1.375C485.973,21.184,486.086,21.792,486.074,22.403z
	 M485.142,22.403c0.006-0.498-0.081-0.992-0.257-1.458c-0.158-0.423-0.399-0.811-0.709-1.141c-0.3-0.316-0.66-0.567-1.061-0.739
	c-0.412-0.177-0.857-0.266-1.306-0.262c-0.454-0.004-0.904,0.085-1.322,0.262c-0.402,0.171-0.765,0.422-1.065,0.739
	c-0.31,0.33-0.55,0.717-0.709,1.141c-0.175,0.466-0.262,0.96-0.257,1.458c-0.003,0.476,0.077,0.949,0.236,1.398
	c0.147,0.42,0.375,0.808,0.671,1.141c0.294,0.329,0.653,0.592,1.055,0.775c0.44,0.196,0.917,0.294,1.398,0.286
	c0.446,0,0.888-0.092,1.297-0.27c0.4-0.171,0.761-0.423,1.061-0.739c0.309-0.328,0.549-0.714,0.708-1.136
	C485.059,23.394,485.146,22.9,485.142,22.403z M480.947,24.897h-0.791v-4.832h1.83c0.462-0.032,0.922,0.082,1.315,0.326
	c0.314,0.258,0.48,0.655,0.444,1.06c0.027,0.354-0.105,0.7-0.361,0.945c-0.256,0.208-0.568,0.334-0.897,0.361l1.351,2.125h-0.897
	l-1.244-2.05h-0.746v2.062L480.947,24.897z M481.833,22.16c0.146,0,0.288-0.005,0.425-0.016c0.124-0.009,0.244-0.042,0.354-0.1
	c0.098-0.057,0.18-0.138,0.236-0.236c0.069-0.126,0.103-0.27,0.095-0.414c0.007-0.124-0.028-0.247-0.1-0.35
	c-0.066-0.085-0.152-0.153-0.25-0.198c-0.107-0.048-0.221-0.078-0.338-0.087c-0.125,0-0.236-0.017-0.361-0.017h-0.944v1.417h0.886
	H481.833z"/>
</svg>
