<?xml version="1.0" encoding="utf-8"?>
<!-- Generator: Adobe Illustrator 15.1.0, SVG Export Plug-In . SVG Version: 6.00 Build 0)  -->
<!DOCTYPE svg PUBLIC "-//W3C//DTD SVG 1.1//EN" "http://www.w3.org/Graphics/SVG/1.1/DTD/svg11.dtd">
<svg version="1.1" id="Layer_4" xmlns="http://www.w3.org/2000/svg" xmlns:xlink="http://www.w3.org/1999/xlink" x="0px" y="0px"
	 width="198.333px" height="85px" viewBox="175.833 0 198.333 85" enable-background="new 175.833 0 198.333 85"
	 xml:space="preserve">
<title>AGA Logo Black_Vector_CS6</title>
<path d="M238.086,37.235c-0.163-0.423-0.423-0.421-0.577,0l-3.484,9.616c-0.131,0.269-0.02,0.593,0.249,0.724
	c0.091,0.044,0.193,0.062,0.294,0.051h6.69c0.291,0.033,0.552-0.176,0.585-0.467c0.012-0.104-0.007-0.209-0.056-0.302
	L238.086,37.235z"/>
<path d="M311.812,36.991c-0.163-0.423-0.423-0.421-0.576,0l-3.485,9.616c-0.131,0.269-0.019,0.593,0.25,0.724
	c0.091,0.045,0.193,0.062,0.293,0.052h6.69c0.29,0.032,0.553-0.177,0.585-0.467c0.012-0.104-0.008-0.21-0.056-0.303L311.812,36.991z
	"/>
<path d="M368.104,21.714l-0.228-0.571l-0.577-0.212c-0.394-0.144-39.729-14.438-92.28-15.479
	c-52.574-1.029-91.995,15.347-92.384,15.505l-0.531,0.224l-0.214,0.535c-0.319,0.787-7.713,19.75-0.02,41.456l0.216,0.609
	l0.608,0.225c0.394,0.146,39.794,14.497,92.28,15.544l0,0c1.619,0.032,3.225,0.048,4.818,0.048
	c50.104,0,87.186-15.454,87.566-15.615l0.561-0.238l0.196-0.574C375.815,41.465,368.424,22.511,368.104,21.714z M326.705,56.787
	h-6.764c-0.488-0.025-0.918-0.332-1.1-0.787l-1.125-3.195c-0.184-0.451-0.613-0.756-1.1-0.777l-9.998,0.014
	c-0.488,0.024-0.918,0.332-1.098,0.787l-1.111,3.178c-0.181,0.455-0.609,0.762-1.099,0.787h-6.918
	c-0.298,0.031-0.565-0.184-0.599-0.482c-0.011-0.101,0.008-0.203,0.052-0.295l9.479-26.415c0.188-0.451,0.617-0.753,1.104-0.777
	h9.89c0.488,0.024,0.92,0.324,1.112,0.773l9.812,26.421c0.129,0.267,0.018,0.588-0.248,0.718
	C326.905,56.779,326.805,56.797,326.705,56.787z M269.141,43.074c0.159,9.642,8.626,9.39,8.626,9.39h1.082
	c0.157-0.157,0.287-0.657,0.287-1.112V48.6c-0.002-0.455-0.37-0.822-0.824-0.824h-0.673c-0.455-0.002-0.822-0.37-0.824-0.824v-4.55
	c0.002-0.454,0.369-0.822,0.824-0.824h8.657c0.454,0.002,0.822,0.37,0.825,0.824v12.199c-3.689,3.176-11.137,3.019-11.137,3.019
	c-15.627-0.572-15.978-14.322-15.978-14.322c0-10.056,8.943-14.769,16.296-14.769c7.353,0,10.822,3.087,10.822,3.087
	c0.445,2.133-0.383,4.742-0.383,4.742c-0.318,0.983-1.113,0.318-1.113,0.318c-3.916-2.45-8.561-2.418-8.561-2.418
	C268.472,34.956,269.141,43.074,269.141,43.074z M252.98,57.045h-6.764c-0.489-0.025-0.919-0.332-1.1-0.787l-1.125-3.195
	c-0.184-0.451-0.613-0.756-1.1-0.777l-9.997,0.014c-0.488,0.024-0.917,0.332-1.098,0.787l-1.111,3.178
	c-0.18,0.455-0.609,0.762-1.098,0.787h-6.924c-0.298,0.031-0.566-0.184-0.599-0.482c-0.011-0.102,0.007-0.203,0.052-0.295
	l9.487-26.425c0.187-0.451,0.617-0.754,1.104-0.777h9.887c0.488,0.024,0.919,0.324,1.112,0.773l9.812,26.429
	c0.128,0.268,0.014,0.588-0.254,0.715c-0.088,0.043-0.186,0.06-0.283,0.051V57.045z"/>
<path fill="#FFFFFF" d="M242.594,29.071h-9.897c-0.487,0.023-0.917,0.326-1.104,0.777l-9.472,26.415
	c-0.131,0.27-0.019,0.594,0.251,0.726c0.092,0.044,0.194,0.062,0.296,0.052h6.92c0.489-0.025,0.918-0.332,1.098-0.787l1.111-3.178
	c0.181-0.455,0.61-0.763,1.098-0.787l9.998-0.014c0.487,0.021,0.916,0.325,1.1,0.777l1.125,3.195c0.181,0.455,0.611,0.762,1.1,0.787
	h6.762c0.295,0.03,0.56-0.184,0.59-0.479c0.011-0.102-0.007-0.204-0.053-0.295l-9.812-26.417
	C243.513,29.395,243.082,29.095,242.594,29.071z M241.254,47.631h-6.69c-0.297,0.031-0.563-0.184-0.595-0.48
	c-0.011-0.102,0.007-0.203,0.052-0.294l3.484-9.616c0.156-0.427,0.416-0.429,0.577,0l3.697,9.625
	c0.132,0.261,0.027,0.579-0.234,0.711C241.456,47.623,241.354,47.642,241.254,47.631z"/>
<path fill="#FFFFFF" d="M316.319,28.819h-9.89c-0.486,0.024-0.916,0.327-1.104,0.777l-9.479,26.413
	c-0.131,0.27-0.019,0.594,0.251,0.726c0.092,0.044,0.194,0.062,0.296,0.052h6.92c0.489-0.025,0.918-0.332,1.099-0.787l1.111-3.178
	c0.18-0.455,0.609-0.763,1.098-0.787l9.998-0.014c0.486,0.021,0.916,0.326,1.1,0.777l1.125,3.195c0.182,0.455,0.611,0.762,1.1,0.787
	h6.764c0.295,0.03,0.559-0.184,0.59-0.479c0.011-0.102-0.008-0.204-0.053-0.295l-9.814-26.415
	C317.237,29.144,316.807,28.844,316.319,28.819z M314.979,47.382h-6.69c-0.297,0.031-0.562-0.185-0.594-0.481
	c-0.012-0.102,0.007-0.203,0.051-0.294l3.489-9.616c0.155-0.427,0.415-0.429,0.576,0l3.697,9.627c0.13,0.262,0.022,0.579-0.239,0.71
	c-0.09,0.044-0.19,0.062-0.29,0.052V47.382z"/>
<path fill="#FFFFFF" d="M277.064,34.258c0,0,4.646-0.032,8.561,2.418c0,0,0.787,0.669,1.113-0.318c0,0,0.828-2.611,0.382-4.742
	c0,0-3.469-3.087-10.821-3.087c-7.353,0-16.294,4.71-16.294,14.759c0,0,0.351,13.75,15.978,14.322c0,0,7.447,0.159,11.141-3.024
	V42.386c-0.003-0.454-0.371-0.822-0.825-0.824h-8.657c-0.455,0.002-0.822,0.37-0.824,0.824v4.558
	c0.002,0.454,0.369,0.822,0.824,0.824h0.673c0.455,0.005,0.821,0.377,0.818,0.832v2.754c0,0.455-0.13,0.955-0.287,1.112h-1.082
	c0,0-8.461,0.256-8.626-9.39C269.141,43.074,268.472,34.956,277.064,34.258z"/>
</svg>
