<?xml version="1.0" encoding="utf-8"?>
<!-- Generator: Adobe Illustrator 15.1.0, SVG Export Plug-In . SVG Version: 6.00 Build 0)  -->
<!DOCTYPE svg PUBLIC "-//W3C//DTD SVG 1.1//EN" "http://www.w3.org/Graphics/SVG/1.1/DTD/svg11.dtd">
<svg version="1.1" id="Layer_4" xmlns="http://www.w3.org/2000/svg" xmlns:xlink="http://www.w3.org/1999/xlink" x="0px" y="0px"
	 width="201.333px" height="85px" viewBox="173.5 0 201.333 85" enable-background="new 173.5 0 201.333 85" xml:space="preserve">
<title>Marvel Logo Black_Vector_CS6</title>
<path d="M369.838,25.63l-1.039-5.364l-5.158-1.81C330.707,6.918,281.936,6.524,275.472,6.524c-0.264,0-0.431,0-0.59,0
	c-4.96,0-54.994,0.301-88.53,12.052l-5.159,1.806l-1.031,5.37c-3.805,19.646,0,33.866,0.167,34.457l1.324,4.809l4.707,1.645
	c32.341,11.331,80.004,11.806,87.859,11.806h1.629c7.85,0,55.453-0.484,87.793-11.806l4.722-1.654l1.316-4.825
	C369.838,59.582,373.639,45.269,369.838,25.63z M364.023,58.635l-0.506,1.855l-1.815,0.635
	c-31.429,11.019-78.072,11.484-85.813,11.484h-1.711c-7.745,0-54.449-0.472-85.88-11.484l-1.81-0.633l-0.51-1.85
	c-0.149-0.543-3.612-13.471-0.065-31.787l0.394-2.064l1.985-0.694c32.851-11.504,82.346-11.682,86.675-11.713
	c3.36,0,53.518-0.031,86.735,11.609l1.985,0.695l0.393,2.064C367.633,45.058,364.174,58.096,364.023,58.635z"/>
<path fill="#FFFFFF" d="M363.688,24.68l-1.985-0.695c-33.207-11.634-83.377-11.589-86.735-11.601
	c-4.329,0.032-53.824,0.215-86.669,11.721l-1.985,0.687l-0.393,2.064c-3.542,18.316-0.085,31.244,0.065,31.787l0.509,1.85
	l1.81,0.633c31.431,11.019,78.133,11.484,85.88,11.484h1.712c7.74,0,54.384-0.472,85.812-11.484l1.815-0.635l0.506-1.855
	c0.15-0.547,3.607-13.577,0.062-31.897L363.688,24.68z M360.85,57.776l-0.051,0.196l-0.186,0.065
	c-31.296,10.966-79.598,11.298-85.196,11.298h-0.757c-5.606,0-53.971-0.332-85.27-11.298l-0.185-0.065l-0.051-0.196
	c-0.033-0.124-3.408-12.721,0-30.287l0.042-0.208l0.197-0.071c31.774-11.137,81.159-11.526,85.49-11.536l0,0
	c0.754-0.035,52.708-0.153,85.728,11.412l0.197,0.071l0.041,0.208C364.258,44.938,360.885,57.65,360.85,57.776z"/>
<path d="M269.589,39.954c1.328-0.327,1.6-1.377,1.6-1.918c0-2.082-2.361-2.082-4.101-2.082h-3.418v4.132h3.418
	C268.415,40.094,269.078,40.094,269.589,39.954z"/>
<polygon points="242.863,37.054 242.773,37.054 239.756,45.257 245.667,45.257 "/>
<path d="M360.816,27.153l-0.197-0.071c-33.02-11.567-84.974-11.45-85.728-11.412l0,0c-4.329,0.012-53.715,0.394-85.498,11.536
	l-0.197,0.071l-0.042,0.208c-3.416,17.572-0.041,30.165-0.008,30.291l0.051,0.196l0.185,0.065
	c31.298,10.966,79.664,11.298,85.27,11.298h0.757c5.603,0,53.912-0.332,85.196-11.298l0.186-0.065l0.051-0.196
	c0.035-0.128,3.408-12.839,0-30.407L360.816,27.153z M208.625,53.641h-4.929V31.875h8.976l3.42,12.547l3.247-12.547l8.947-0.029
	l0.029,21.803h-5.385l0.256-16.54l-4.872,16.532h-5.129l-4.701-16.691L208.625,53.641z M323.023,40.064v4.705h-10.35v4.161h11.193
	v4.705h-17.164V31.928h16.922v4.342h-10.951v3.799h10.35V40.064z M302.572,31.875l-7.932,21.766h-7.209l-7.689-21.766h6.67
	l4.946,15.772l5.212-15.772H302.572z M255.379,53.641h-7.119l-1.507-4.374h-8.173l-1.478,4.374h-6.272l8.596-21.766h7.357
	L255.379,53.641z M257.608,31.875h11.229c3.919,0,5.397,0.242,6.69,1.574c0.663,0.663,1.377,1.873,1.508,4.222
	c0.283,5.129-4.206,6.454-4.206,6.454c1.027,0,2.837,3.5,2.837,3.5l3.189,6.029h-7.231c0,0-2.231-3.99-3.315-6.104
	c-1.084-2.113-1.81-2.414-1.81-2.414h-2.83v8.504h-6.062V31.875z M329.05,53.641V31.875h5.765v16.768h10.133v5.006H329.05V53.641z"
	/>
<polygon fill="#FFFFFF" points="213.184,53.641 218.313,53.641 223.186,37.101 222.93,53.641 228.315,53.641 228.286,31.837 
	219.339,31.867 216.09,44.414 212.67,31.867 203.696,31.867 203.696,53.641 208.625,53.641 208.483,36.949 "/>
<path fill="#FFFFFF" d="M230.83,53.641h6.272l1.478-4.374h8.173l1.507,4.374h7.117l-8.595-21.766h-7.357L230.83,53.641z
	 M242.771,37.054h0.09l2.806,8.201h-5.903L242.771,37.054z"/>
<path fill="#FFFFFF" d="M263.67,45.137h2.83c0,0,0.724,0.303,1.81,2.414c1.086,2.111,3.317,6.09,3.317,6.09h7.235l-3.191-6.025
	c0,0-1.81-3.5-2.837-3.5c0,0,4.489-1.324,4.206-6.454c-0.129-2.349-0.845-3.559-1.508-4.222c-1.297-1.328-2.774-1.574-6.69-1.574
	h-11.233v21.775h6.062V45.137z M263.67,35.952h3.418c1.749,0,4.101,0,4.101,2.082c0,0.539-0.271,1.592-1.6,1.918
	c-0.512,0.14-1.181,0.14-2.501,0.14h-3.418V35.96V35.952z"/>
<polygon fill="#FFFFFF" points="286.408,31.867 279.742,31.867 287.432,53.641 294.641,53.641 302.572,31.867 296.57,31.867 
	291.353,47.641 "/>
<polygon fill="#FFFFFF" points="323.627,36.271 323.627,31.928 306.703,31.928 306.703,53.641 323.867,53.641 323.867,48.936 
	312.674,48.936 312.674,44.774 323.023,44.774 323.023,40.07 312.674,40.07 312.674,36.271 "/>
<polygon fill="#FFFFFF" points="344.941,48.635 334.809,48.635 334.809,31.867 329.05,31.867 329.05,53.641 344.941,53.641 "/>
</svg>
